<svg width="19" height="19" viewBox="0 0 19 19" fill="none" xmlns="http://www.w3.org/2000/svg">
<path fill-rule="evenodd" clip-rule="evenodd" d="M8.85355 0.707107C9.24408 0.316582 9.87724 0.316582 10.2678 0.707107L10.9749 1.41421C11.3654 1.80474 11.3654 2.4379 10.9749 2.82843L5.74264 8.06066H17.6213C18.1736 8.06066 18.6213 8.50838 18.6213 9.06066V10.0607C18.6213 10.6129 18.1736 11.0607 17.6213 11.0607H5.74264L10.9749 16.2929C11.3654 16.6834 11.3654 17.3166 10.9749 17.7071L10.2678 18.4142C9.87724 18.8047 9.24408 18.8047 8.85355 18.4142L0.707107 10.2678C0.316582 9.87724 0.316583 9.24408 0.707107 8.85355L8.85355 0.707107Z" fill="white" fill-opacity="0.7"/>
</svg>
