<svg width="24" height="24" viewBox="0 0 24 24" fill="none" xmlns="http://www.w3.org/2000/svg">
<path fill-rule="evenodd" clip-rule="evenodd" d="M7 0C6.44772 0 6 0.447716 6 1V6L1 6C0.447715 6 0 6.44771 0 7V8C0 8.55229 0.447716 9 1 9H6V15H1C0.447715 15 0 15.4477 0 16V17C0 17.5523 0.447716 18 1 18H6V23C6 23.5523 6.44772 24 7 24H8C8.55228 24 9 23.5523 9 23V18L15 18V23C15 23.5523 15.4477 24 16 24H17C17.5523 24 18 23.5523 18 23V18H23C23.5523 18 24 17.5523 24 17V16C24 15.4477 23.5523 15 23 15H18V9H23C23.5523 9 24 8.55229 24 8V7C24 6.44772 23.5523 6 23 6L18 6V1C18 0.447715 17.5523 0 17 0H16C15.4477 0 15 0.447716 15 1V6L9 6V1C9 0.447715 8.55229 0 8 0H7ZM15 15V9L9 9V15L15 15Z" fill="#C4C4C4"/>
</svg>
