<svg width="27" height="33" viewBox="0 0 27 33" fill="none" xmlns="http://www.w3.org/2000/svg">
<circle cx="7" cy="11" r="3" stroke="white" stroke-opacity="0.7" stroke-width="3" stroke-linejoin="round"/>
<circle cx="21" cy="5" r="3" stroke="white" stroke-opacity="0.7" stroke-width="3" stroke-linejoin="round"/>
<path d="M2 30.7419H0.5C0.5 31.5704 1.17157 32.2419 2 32.2419L2 30.7419ZM11.2903 30.7419V32.2419C12.1187 32.2419 12.7903 31.5704 12.7903 30.7419H11.2903ZM6.64516 19.8548C8.38219 19.8548 9.79032 21.263 9.79032 23H12.7903C12.7903 19.6061 10.039 16.8548 6.64516 16.8548V19.8548ZM3.5 23C3.5 21.263 4.90814 19.8548 6.64516 19.8548V16.8548C3.25128 16.8548 0.5 19.6061 0.5 23H3.5ZM3.5 23C3.5 23 3.5 23 3.5 23C3.5 23 3.5 23 3.5 23C3.5 23 3.5 23 3.5 23C3.5 23 3.5 23 3.5 23C3.5 23 3.5 23 3.5 23C3.5 23 3.5 23 3.5 23C3.5 23 3.5 23 3.5 23C3.5 23 3.5 23 3.5 23C3.5 23 3.5 23 3.5 23C3.5 23 3.5 23 3.5 23C3.5 23 3.5 23 3.5 23C3.5 23 3.5 23 3.5 23C3.5 23 3.5 23 3.5 23C3.5 23 3.5 23 3.5 23C3.5 23 3.5 23 3.5 23C3.5 23 3.5 23 3.5 23C3.5 23 3.5 23 3.5 23C3.5 23 3.5 23 3.5 23C3.5 23 3.5 23 3.5 23C3.5 23 3.5 23 3.5 23C3.5 23 3.5 23 3.5 23C3.5 23 3.5 23 3.5 23C3.5 23 3.5 23 3.5 23C3.5 23 3.5 23 3.5 23C3.5 23 3.5 23 3.5 23C3.5 23 3.5 23 3.5 23C3.5 23 3.5 23 3.5 23C3.5 23 3.5 23 3.5 23C3.5 23 3.5 23 3.5 23C3.5 23 3.5 23 3.5 23C3.5 23 3.5 23 3.5 23C3.5 23 3.5 23 3.5 23C3.5 23 3.5 23 3.5 23C3.5 23 3.5 23 3.5 23C3.5 23 3.5 23 3.5 23C3.5 23 3.5 23 3.5 23C3.5 23 3.5 23 3.5 23C3.5 23 3.5 23 3.5 23C3.5 23 3.5 23 3.5 23C3.5 23 3.5 23 3.5 23C3.5 23 3.5 23 3.5 23C3.5 23 3.5 23 3.5 23C3.5 23 3.5 23 3.5 23C3.5 23 3.5 23 3.5 23C3.5 23 3.5 23 3.5 23C3.5 23 3.5 23 3.5 23C3.5 23 3.5 23 3.5 23C3.5 23 3.5 23 3.5 23C3.5 23 3.5 23 3.5 23C3.5 23 3.5 23 3.5 23C3.5 23 3.5 23 3.5 23C3.5 23 3.5 23 3.5 23C3.5 23 3.5 23 3.5 23C3.5 23 3.5 23 3.5 23C3.5 23 3.5 23 3.5 23C3.5 23 3.5 23 3.5 23C3.5 23 3.5 23 3.5 23C3.5 23 3.5 23 3.5 23C3.5 23 3.5 23 3.5 23C3.5 23 3.5 23 3.5 23C3.5 23 3.5 23 3.5 23C3.5 23 3.5 23 3.5 23C3.5 23 3.5 23 3.5 23C3.5 23 3.5 23 3.5 23C3.5 23 3.5 23 3.5 23C3.5 23 3.5 23 3.5 23C3.5 23 3.5 23 3.5 23C3.5 23 3.5 23 3.5 23C3.5 23 3.5 23 3.5 23C3.5 23 3.5 23 3.5 23C3.5 23 3.5 23 3.5 23C3.5 23 3.5 23 3.5 23C3.5 23 3.5 23 3.5 23C3.5 23 3.5 23 3.5 23C3.5 23 3.5 23 3.5 23C3.5 23 3.5 23 3.5 23C3.5 23 3.5 23 3.5 23C3.5 23 3.5 23 3.5 23C3.5 23 3.5 23 3.5 23C3.5 23 3.5 23 3.5 23C3.5 23 3.5 23 3.5 23C3.5 23 3.5 23 3.5 23C3.5 23 3.5 23 3.5 23C3.5 23 3.5 23 3.5 23C3.5 23 3.5 23 3.5 23C3.5 23 3.5 23 3.5 23C3.5 23 3.5 23 3.5 23C3.5 23 3.5 23 3.5 23C3.5 23 3.5 23 3.5 23C3.5 23 3.5 23 3.5 23C3.5 23 3.5 23 3.5 23C3.5 23 3.5 23 3.5 23C3.5 23 3.5 23 3.5 23C3.5 23 3.5 23 3.5 23C3.5 23 3.5 23 3.5 23C3.5 23 3.5 23 3.5 23C3.5 23 3.5 23 3.5 23C3.5 23 3.5 23 3.5 23C3.5 23 3.5 23 3.5 23C3.5 23 3.5 23 3.5 23C3.5 23 3.5 23 3.5 23C3.5 23 3.5 23 3.5 23C3.5 23 3.5 23 3.5 23C3.5 23 3.5 23 3.5 23C3.5 23 3.5 23 3.5 23C3.5 23 3.5 23 3.5 23C3.5 23 3.5 23 3.5 23C3.5 23 3.5 23 3.5 23C3.5 23 3.5 23 3.5 23C3.5 23 3.5 23 3.5 23C3.5 23 3.5 23 3.5 23C3.5 23 3.5 23 3.5 23C3.5 23 3.5 23 3.5 23C3.5 23 3.5 23 3.5 23C3.5 23 3.5 23 3.5 23C3.5 23 3.5 23 3.5 23C3.5 23 3.5 23 3.5 23C3.5 23 3.5 23 3.5 23C3.5 23 3.5 23 3.5 23C3.5 23 3.5 23 3.5 23C3.5 23 3.5 23 3.5 23C3.5 23 3.5 23 3.5 23C3.5 23 3.5 23 3.5 23C3.5 23 3.5 23 3.5 23C3.5 23 3.5 23 3.5 23C3.5 23 3.5 23 3.5 23C3.5 23 3.5 23 3.5 23C3.5 23 3.5 23 3.5 23C3.5 23 3.5 23 3.5 23C3.5 23 3.5 23 3.5 23C3.5 23 3.5 23 3.5 23C3.5 23 3.5 23 3.5 23C3.5 23 3.5 23 3.5 23C3.5 23 3.5 23 3.5 23C3.5 23 3.5 23 3.5 23C3.5 23 3.5 23 3.5 23C3.5 23 3.5 23 3.5 23C3.5 23 3.5 23 3.5 23C3.5 23 3.5 23 3.5 23C3.5 23 3.5 23 3.5 23C3.5 23 3.5 23 3.5 23C3.5 23 3.5 23 3.5 23C3.5 23 3.5 23 3.5 23C3.5 23 3.5 23 3.5 23C3.5 23 3.5 23 3.5 23C3.5 23 3.5 23 3.5 23C3.5 23 3.5 23 3.5 23C3.5 23 3.5 23 3.5 23C3.5 23 3.5 23 3.5 23C3.5 23 3.5 23 3.5 23C3.5 23 3.5 23 3.5 23C3.5 23 3.5 23 3.5 23C3.5 23 3.5 23 3.5 23C3.5 23 3.5 23 3.5 23C3.5 23 3.5 23 3.5 23C3.5 23 3.5 23 3.5 23C3.5 23 3.5 23 3.5 23C3.5 23 3.5 23 3.5 23C3.5 23 3.5 23 3.5 23C3.5 23 3.5 23 3.5 23C3.5 23 3.5 23 3.5 23C3.5 23 3.5 23 3.5 23C3.5 23 3.5 23 3.5 23C3.5 23 3.5 23 3.5 23C3.5 23 3.5 23 3.5 23C3.5 23 3.5 23 3.5 23C3.5 23 3.5 23 3.5 23C3.5 23 3.5 23 3.5 23C3.5 23 3.5 23 3.5 23C3.5 23 3.5 23 3.5 23C3.5 23 3.5 23 3.5 23C3.5 23 3.5 23 3.5 23C3.5 23 3.5 23 3.5 23C3.5 23 3.5 23 3.5 23C3.5 23 3.5 23 3.5 23C3.5 23 3.5 23 3.5 23C3.5 23 3.5 23 3.5 23C3.5 23 3.5 23 3.5 23C3.5 23 3.5 23 3.5 23C3.5 23 3.5 23 3.5 23C3.5 23 3.5 23 3.5 23C3.5 23 3.5 23 3.5 23C3.5 23 3.5 23 3.5 23C3.5 23 3.5 23 3.5 23C3.5 23 3.5 23 3.5 23C3.5 23 3.5 23 3.5 23C3.5 23 3.5 23 3.5 23C3.5 23 3.5 23 3.5 23C3.5 23 3.5 23 3.5 23C3.5 23 3.5 23 3.5 23C3.5 23 3.5 23 3.5 23C3.5 23 3.5 23 3.5 23C3.5 23 3.5 23 3.5 23C3.5 23 3.5 23 3.5 23C3.5 23 3.5 23 3.5 23C3.5 23 3.5 23 3.5 23C3.5 23 3.5 23 3.5 23C3.5 23 3.5 23 3.5 23C3.5 23 3.5 23 3.5 23C3.5 23 3.5 23 3.5 23C3.5 23 3.5 23 3.5 23C3.5 23 3.5 23 3.5 23C3.5 23 3.5 23 3.5 23C3.5 23 3.5 23 3.5 23C3.5 23 3.5 23 3.5 23C3.5 23 3.5 23 3.5 23C3.5 23 3.5 23 3.5 23C3.5 23 3.5 23 3.5 23C3.5 23 3.5 23 3.5 23C3.5 23 3.5 23 3.5 23C3.5 23 3.5 23 3.5 23C3.5 23 3.5 23 3.5 23C3.5 23 3.5 23 3.5 23C3.5 23 3.5 23 3.5 23C3.5 23 3.5 23 3.5 23C3.5 23 3.5 23 3.5 23C3.5 23 3.5 23 3.5 23C3.5 23 3.5 23 3.5 23C3.5 23 3.5 23 3.5 23C3.5 23 3.5 23 3.5 23C3.5 23 3.5 23 3.5 23C3.5 23 3.5 23 3.5 23C3.5 23 3.5 23 3.5 23C3.5 23 3.5 23 3.5 23C3.5 23 3.5 23 3.5 23C3.5 23 3.5 23 3.5 23C3.5 23 3.5 23 3.5 23C3.5 23 3.5 23 3.5 23C3.5 23 3.5 23 3.5 23C3.5 23 3.5 23 3.5 23C3.5 23 3.5 23 3.5 23C3.5 23 3.5 23 3.5 23C3.5 23 3.5 23 3.5 23C3.5 23 3.5 23 3.5 23C3.5 23 3.5 23 3.5 23C3.5 23 3.5 23 3.5 23C3.5 23 3.5 23 3.5 23C3.5 23 3.5 23 3.5 23C3.5 23 3.5 23 3.5 23C3.5 23 3.5 23 3.5 23C3.5 23 3.5 23 3.5 23C3.5 23 3.5 23 3.5 23C3.5 23 3.5 23 3.5 23C3.5 23 3.5 23 3.5 23C3.5 23 3.5 23 3.5 23C3.5 23 3.5 23 3.5 23C3.5 23 3.5 23 3.5 23C3.5 23 3.5 23 3.5 23C3.5 23 3.5 23 3.5 23C3.5 23 3.5 23 3.5 23C3.5 23 3.5 23 3.5 23C3.5 23 3.5 23 3.5 23C3.5 23 3.5 23 3.5 23C3.5 23 3.5 23 3.5 23C3.5 23 3.5 23 3.5 23C3.5 23 3.5 23 3.5 23C3.5 23 3.5 23 3.5 23C3.5 23 3.5 23 3.5 23C3.5 23 3.5 23 3.5 23C3.5 23 3.5 23 3.5 23C3.5 23 3.5 23 3.5 23C3.5 23 3.5 23 3.5 23C3.5 23 3.5 23 3.5 23C3.5 23 3.5 23 3.5 23C3.5 23 3.5 23 3.5 23C3.5 23 3.5 23 3.5 23C3.5 23 3.5 23 3.5 23C3.5 23 3.5 23 3.5 23C3.5 23 3.5 23 3.5 23C3.5 23 3.5 23 3.5 23C3.5 23 3.5 23 3.5 23C3.5 23 3.5 23 3.5 23C3.5 23 3.5 23 3.5 23C3.5 23 3.5 23 3.5 23C3.5 23 3.5 23 3.5 23C3.5 23 3.5 23 3.5 23C3.5 23 3.5 23 3.5 23C3.5 23 3.5 23 3.5 23C3.5 23 3.5 23 3.5 23C3.5 23 3.5 23 3.5 23C3.5 23 3.5 23 3.5 23C3.5 23 3.5 23 3.5 23C3.5 23 3.5 23 3.5 23C3.5 23 3.5 23 3.5 23C3.5 23 3.5 23 3.5 23C3.5 23 3.5 23 3.5 23C3.5 23 3.5 23 3.5 23C3.5 23 3.5 23 3.5 23C3.5 23 3.5 23 3.5 23C3.5 23 3.5 23 3.5 23C3.5 23 3.5 23 3.5 23C3.5 23 3.5 23 3.5 23C3.5 23 3.5 23 3.5 23C3.5 23 3.5 23 3.5 23C3.5 23 3.5 23 3.5 23C3.5 23 3.5 23 3.5 23C3.5 23 3.5 23 3.5 23C3.5 23 3.5 23 3.5 23C3.5 23 3.5 23 3.5 23C3.5 23 3.5 23 3.5 23C3.5 23 3.5 23 3.5 23C3.5 23 3.5 23 3.5 23C3.5 23 3.5 23 3.5 23C3.5 23 3.5 23 3.5 23C3.5 23 3.5 23 3.5 23C3.5 23 3.5 23 3.5 23C3.5 23 3.5 23 3.5 23C3.5 23 3.5 23 3.5 23C3.5 23 3.5 23 3.5 23C3.5 23 3.5 23 3.5 23C3.5 23 3.5 23 3.5 23C3.5 23 3.5 23 3.5 23C3.5 23 3.5 23 3.5 23C3.5 23 3.5 23 3.5 23C3.5 23 3.5 23 3.5 23C3.5 23 3.5 23 3.5 23C3.5 23 3.5 23 3.5 23C3.5 23 3.5 23 3.5 23C3.5 23 3.5 23 3.5 23C3.5 23 3.5 23 3.5 23C3.5 23 3.5 23 3.5 23C3.5 23 3.5 23 3.5 23C3.5 23 3.5 23 3.5 23C3.5 23 3.5 23 3.5 23C3.5 23 3.5 23 3.5 23C3.5 23 3.5 23 3.5 23C3.5 23 3.5 23 3.5 23C3.5 23 3.5 23 3.5 23C3.5 23 3.5 23 3.5 23C3.5 23 3.5 23 3.5 23C3.5 23 3.5 23 3.5 23C3.5 23 3.5 23 3.5 23C3.5 23 3.5 23 3.5 23C3.5 23 3.5 23 3.5 23C3.5 23 3.5 23 3.5 23C3.5 23 3.5 23 3.5 23C3.5 23 3.5 23 3.5 23C3.5 23 3.5 23 3.5 23C3.5 23 3.5 23 3.5 23C3.5 23 3.5 23 3.5 23C3.5 23 3.5 23 3.5 23C3.5 23 3.5 23 3.5 23C3.5 23 3.5 23 3.5 23C3.5 23 3.5 23 3.5 23C3.5 23 3.5 23 3.5 23C3.5 23 3.5 23 3.5 23C3.5 23 3.5 23 3.5 23C3.5 23 3.5 23 3.5 23C3.5 23 3.5 23 3.5 23C3.5 23 3.5 23 3.5 23C3.5 23 3.5 23 3.5 23C3.5 23 3.5 23 3.5 23C3.5 23 3.5 23 3.5 23C3.5 23 3.5 23 3.5 23C3.5 23 3.5 23 3.5 23C3.5 23 3.5 23 3.5 23C3.5 23 3.5 23 3.5 23C3.5 23 3.5 23 3.5 23C3.5 23 3.5 23 3.5 23C3.5 23 3.5 23 3.5 23C3.5 23 3.5 23 3.5 23C3.5 23 3.5 23 3.5 23C3.5 23 3.5 23 3.5 23C3.5 23 3.5 23 3.5 23C3.5 23 3.5 23 3.5 23C3.5 23 3.5 23 3.5 23C3.5 23 3.5 23 3.5 23C3.5 23 3.5 23 3.5 23C3.5 23 3.5 23 3.5 23C3.5 23 3.5 23 3.5 23C3.5 23 3.5 23 3.5 23C3.5 23 3.5 23 3.5 23C3.5 23 3.5 23 3.5 23C3.5 23 3.5 23 3.5 23C3.5 23 3.5 23 3.5 23C3.5 23 3.5 23 3.5 23C3.5 23 3.5 23 3.5 23C3.5 23 3.5 23 3.5 23C3.5 23 3.5 23 3.5 23C3.5 23 3.5 23 3.5 23C3.5 23 3.5 23 3.5 23C3.5 23 3.5 23 3.5 23C3.5 23 3.5 23 3.5 23C3.5 23 3.5 23 3.5 23C3.5 23 3.5 23 3.5 23C3.5 23 3.5 23 3.5 23C3.5 23 3.5 23 3.5 23C3.5 23 3.5 23 3.5 23C3.5 23 3.5 23 3.5 23C3.5 23 3.5 23 3.5 23C3.5 23 3.5 23 3.5 23C3.5 23 3.5 23 3.5 23C3.5 23 3.5 23 3.5 23C3.5 23 3.5 23 3.5 23C3.5 23 3.5 23 3.5 23C3.5 23 3.5 23 3.5 23C3.5 23 3.5 23 3.5 23C3.5 23 3.5 23 3.5 23C3.5 23 3.5 23 3.5 23C3.5 23 3.5 23 3.5 23C3.5 23 3.5 23 3.5 23C3.5 23 3.5 23 3.5 23C3.5 23 3.5 23 3.5 23C3.5 23 3.5 23 3.5 23C3.5 23 3.5 23 3.5 23C3.5 23 3.5 23 3.5 23C3.5 23 3.5 23 3.5 23C3.5 23 3.5 23 3.5 23C3.5 23 3.5 23 3.5 23C3.5 23 3.5 23 3.5 23C3.5 23 3.5 23 3.5 23C3.5 23 3.5 23 3.5 23C3.5 23 3.5 23 3.5 23C3.5 23 3.5 23 3.5 23C3.5 23 3.5 23 3.5 23C3.5 23 3.5 23 3.5 23C3.5 23 3.5 23 3.5 23C3.5 23 3.5 23 3.5 23C3.5 23 3.5 23 3.5 23C3.5 23 3.5 23 3.5 23C3.5 23 3.5 23 3.5 23C3.5 23 3.5 23 3.5 23C3.5 23 3.5 23 3.5 23C3.5 23 3.5 23 3.5 23C3.5 23 3.5 23 3.5 23C3.5 23 3.5 23 3.5 23C3.5 23 3.5 23 3.5 23C3.5 23 3.5 23 3.5 23C3.5 23 3.5 23 3.5 23C3.5 23 3.5 23 3.5 23C3.5 23 3.5 23 3.5 23C3.5 23 3.5 23 3.5 23C3.5 23 3.5 23 3.5 23C3.5 23 3.5 23 3.5 23C3.5 23 3.5 23 3.5 23C3.5 23 3.5 23 3.5 23C3.5 23 3.5 23 3.5 23C3.5 23 3.5 23 3.5 23C3.5 23 3.5 23 3.5 23C3.5 23 3.5 23 3.5 23C3.5 23 3.5 23 3.5 23C3.5 23 3.5 23 3.5 23C3.5 23 3.5 23 3.5 23C3.5 23 3.5 23 3.5 23C3.5 23 3.5 23 3.5 23C3.5 23 3.5 23 3.5 23C3.5 23 3.5 23 3.5 23C3.5 23 3.5 23 3.5 23C3.5 23 3.5 23 3.5 23C3.5 23 3.5 23 3.5 23C3.5 23 3.5 23 3.5 23C3.5 23 3.5 23 3.5 23C3.5 23 3.5 23 3.5 23C3.5 23 3.5 23 3.5 23C3.5 23 3.5 23 3.5 23C3.5 23 3.5 23 3.5 23C3.5 23 3.5 23 3.5 23C3.5 23 3.5 23 3.5 23C3.5 23 3.5 23 3.5 23C3.5 23 3.5 23 3.5 23C3.5 23 3.5 23 3.5 23C3.5 23 3.5 23 3.5 23C3.5 23 3.5 23 3.5 23C3.5 23 3.5 23 3.5 23C3.5 23 3.5 23 3.5 23C3.5 23 3.5 23 3.5 23C3.5 23 3.5 23 3.5 23C3.5 23 3.5 23 3.5 23C3.5 23 3.5 23 3.5 23C3.5 23 3.5 23 3.5 23C3.5 23 3.5 23 3.5 23C3.5 23 3.5 23 3.5 23C3.5 23 3.5 23 3.5 23C3.5 23 3.5 23 3.5 23C3.5 23 3.5 23 3.5 23C3.5 23 3.5 23 3.5 23C3.5 23 3.5 23 3.5 23C3.5 23 3.5 23 3.5 23C3.5 23 3.5 23 3.5 23C3.5 23 3.5 23 3.5 23C3.5 23 3.5 23 3.5 23C3.5 23 3.5 23 3.5 23C3.5 23 3.5 23 3.5 23C3.5 23 3.5 23 3.5 23C3.5 23 3.5 23 3.5 23C3.5 23 3.5 23 3.5 23C3.5 23 3.5 23 3.5 23C3.5 23 3.5 23 3.5 23C3.5 23 3.5 23 3.5 23C3.5 23 3.5 23 3.5 23C3.5 23 3.5 23 3.5 23C3.5 23 3.5 23 3.5 23C3.5 23 3.5 23 3.5 23C3.5 23 3.5 23 3.5 23C3.5 23 3.5 23 3.5 23C3.5 23 3.5 23 3.5 23C3.5 23 3.5 23 3.5 23C3.5 23 3.5 23 3.5 23C3.5 23 3.5 23 3.5 23C3.5 23 3.5 23 3.5 23C3.5 23 3.5 23 3.5 23C3.5 23 3.5 23 3.5 23C3.5 23 3.5 23 3.5 23C3.5 23 3.5 23 3.5 23C3.5 23 3.5 23 3.5 23C3.5 23 3.5 23 3.5 23C3.5 23 3.5 23 3.5 23C3.5 23 3.5 23 3.5 23C3.5 23 3.5 23 3.5 23C3.5 23 3.5 23 3.5 23C3.5 23 3.5 23 3.5 23C3.5 23 3.5 23 3.5 23H0.5C0.5 23 0.5 23 0.5 23C0.5 23 0.5 23 0.5 23C0.5 23 0.5 23 0.5 23C0.5 23 0.5 23 0.5 23C0.5 23 0.5 23 0.5 23C0.5 23 0.5 23 0.5 23C0.5 23 0.5 23 0.5 23C0.5 23 0.5 23 0.5 23C0.5 23 0.5 23 0.5 23C0.5 23 0.5 23 0.5 23C0.5 23 0.5 23 0.5 23C0.5 23 0.5 23 0.5 23C0.5 23 0.5 23 0.5 23C0.5 23 0.5 23 0.5 23C0.5 23 0.5 23 0.5 23C0.5 23 0.5 23 0.5 23C0.5 23 0.5 23 0.5 23C0.5 23 0.5 23 0.5 23C0.5 23 0.5 23 0.5 23C0.5 23 0.5 23 0.5 23C0.5 23 0.5 23 0.5 23C0.5 23 0.5 23 0.5 23C0.5 23 0.5 23 0.5 23C0.5 23 0.5 23 0.5 23C0.5 23 0.5 23 0.5 23C0.5 23 0.5 23 0.5 23C0.5 23 0.5 23 0.5 23C0.5 23 0.5 23 0.5 23C0.5 23 0.5 23 0.5 23C0.5 23 0.5 23 0.5 23C0.5 23 0.5 23 0.5 23C0.5 23 0.5 23 0.5 23C0.5 23 0.5 23 0.5 23C0.5 23 0.5 23 0.5 23C0.5 23 0.5 23 0.5 23C0.5 23 0.5 23 0.5 23C0.5 23 0.5 23 0.5 23C0.5 23 0.5 23 0.5 23C0.5 23 0.5 23 0.5 23C0.5 23 0.5 23 0.5 23C0.5 23 0.5 23 0.5 23C0.5 23 0.5 23 0.5 23C0.5 23 0.5 23 0.5 23C0.5 23 0.5 23 0.5 23C0.5 23 0.5 23 0.5 23C0.5 23 0.5 23 0.5 23C0.5 23 0.5 23 0.5 23C0.5 23 0.5 23 0.5 23C0.5 23 0.5 23 0.5 23C0.5 23 0.5 23 0.5 23C0.5 23 0.5 23 0.5 23C0.5 23 0.5 23 0.5 23C0.5 23 0.5 23 0.5 23C0.5 23 0.5 23 0.5 23C0.5 23 0.5 23 0.5 23C0.5 23 0.5 23 0.5 23C0.5 23 0.5 23 0.5 23C0.5 23 0.5 23 0.5 23C0.5 23 0.5 23 0.5 23C0.5 23 0.5 23 0.5 23C0.5 23 0.5 23 0.5 23C0.5 23 0.5 23 0.5 23C0.5 23 0.5 23 0.5 23C0.5 23 0.5 23 0.5 23C0.5 23 0.5 23 0.5 23C0.5 23 0.5 23 0.5 23C0.5 23 0.5 23 0.5 23C0.5 23 0.5 23 0.5 23C0.5 23 0.5 23 0.5 23C0.5 23 0.5 23 0.5 23C0.5 23 0.5 23 0.5 23C0.5 23 0.5 23 0.5 23C0.5 23 0.5 23 0.5 23C0.5 23 0.5 23 0.5 23C0.5 23 0.5 23 0.5 23C0.5 23 0.5 23 0.5 23C0.5 23 0.5 23 0.5 23C0.5 23 0.5 23 0.5 23C0.5 23 0.5 23 0.5 23C0.5 23 0.5 23 0.5 23C0.5 23 0.5 23 0.5 23C0.5 23 0.5 23 0.5 23C0.5 23 0.5 23 0.5 23C0.5 23 0.5 23 0.5 23C0.5 23 0.5 23 0.5 23C0.5 23 0.5 23 0.5 23C0.5 23 0.5 23 0.5 23C0.5 23 0.5 23 0.5 23C0.5 23 0.5 23 0.5 23C0.5 23 0.5 23 0.5 23C0.5 23 0.5 23 0.5 23C0.5 23 0.5 23 0.5 23C0.5 23 0.5 23 0.5 23C0.5 23 0.5 23 0.5 23C0.5 23 0.5 23 0.5 23C0.5 23 0.5 23 0.5 23C0.5 23 0.5 23 0.5 23C0.5 23 0.5 23 0.5 23C0.5 23 0.5 23 0.5 23C0.5 23 0.5 23 0.5 23C0.5 23 0.5 23 0.5 23C0.5 23 0.5 23 0.5 23C0.5 23 0.5 23 0.5 23C0.5 23 0.5 23 0.5 23C0.5 23 0.5 23 0.5 23C0.5 23 0.5 23 0.5 23C0.5 23 0.5 23 0.5 23C0.5 23 0.5 23 0.5 23C0.5 23 0.5 23 0.5 23C0.5 23 0.5 23 0.5 23C0.5 23 0.5 23 0.5 23C0.5 23 0.5 23 0.5 23C0.5 23 0.5 23 0.5 23C0.5 23 0.5 23 0.5 23C0.5 23 0.5 23 0.5 23C0.5 23 0.5 23 0.5 23C0.5 23 0.5 23 0.5 23C0.5 23 0.5 23 0.5 23C0.5 23 0.5 23 0.5 23C0.5 23 0.5 23 0.5 23C0.5 23 0.5 23 0.5 23C0.5 23 0.5 23 0.5 23C0.5 23 0.5 23 0.5 23C0.5 23 0.5 23 0.5 23C0.5 23 0.5 23 0.5 23C0.5 23 0.5 23 0.5 23C0.5 23 0.5 23 0.5 23C0.5 23 0.5 23 0.5 23C0.5 23 0.5 23 0.5 23C0.5 23 0.5 23 0.5 23C0.5 23 0.5 23 0.5 23C0.5 23 0.5 23 0.5 23C0.5 23 0.5 23 0.5 23C0.5 23 0.5 23 0.5 23C0.5 23 0.5 23 0.5 23C0.5 23 0.5 23 0.5 23C0.5 23 0.5 23 0.5 23C0.5 23 0.5 23 0.5 23C0.5 23 0.5 23 0.5 23C0.5 23 0.5 23 0.5 23C0.5 23 0.5 23 0.5 23C0.5 23 0.5 23 0.5 23C0.5 23 0.5 23 0.5 23C0.5 23 0.5 23 0.5 23C0.5 23 0.5 23 0.5 23C0.5 23 0.5 23 0.5 23C0.5 23 0.5 23 0.5 23C0.5 23 0.5 23 0.5 23C0.5 23 0.5 23 0.5 23C0.5 23 0.5 23 0.5 23C0.5 23 0.5 23 0.5 23C0.5 23 0.5 23 0.5 23C0.5 23 0.5 23 0.5 23C0.5 23 0.5 23 0.5 23C0.5 23 0.5 23 0.5 23C0.5 23 0.5 23 0.5 23C0.5 23 0.5 23 0.5 23C0.5 23 0.5 23 0.5 23C0.5 23 0.5 23 0.5 23C0.5 23 0.5 23 0.5 23C0.5 23 0.5 23 0.5 23C0.5 23 0.5 23 0.5 23C0.5 23 0.5 23 0.5 23C0.5 23 0.5 23 0.5 23C0.5 23 0.5 23 0.5 23C0.5 23 0.5 23 0.5 23C0.5 23 0.5 23 0.5 23C0.5 23 0.5 23 0.5 23C0.5 23 0.5 23 0.5 23C0.5 23 0.5 23 0.5 23C0.5 23 0.5 23 0.5 23C0.5 23 0.5 23 0.5 23C0.5 23 0.5 23 0.5 23C0.5 23 0.5 23 0.5 23C0.5 23 0.5 23 0.5 23C0.5 23 0.5 23 0.5 23C0.5 23 0.5 23 0.5 23C0.5 23 0.5 23 0.5 23C0.5 23 0.5 23 0.5 23C0.5 23 0.5 23 0.5 23C0.5 23 0.5 23 0.5 23C0.5 23 0.5 23 0.5 23C0.5 23 0.5 23 0.5 23C0.5 23 0.5 23 0.5 23C0.5 23 0.5 23 0.5 23C0.5 23 0.5 23 0.5 23C0.5 23 0.5 23 0.5 23C0.5 23 0.5 23 0.5 23C0.5 23 0.5 23 0.5 23C0.5 23 0.5 23 0.5 23C0.5 23 0.5 23 0.5 23C0.5 23 0.5 23 0.5 23C0.5 23 0.5 23 0.5 23C0.5 23 0.5 23 0.5 23C0.5 23 0.5 23 0.5 23C0.5 23 0.5 23 0.5 23C0.5 23 0.5 23 0.5 23C0.5 23 0.5 23 0.5 23C0.5 23 0.5 23 0.5 23C0.5 23 0.5 23 0.5 23C0.5 23 0.5 23 0.5 23C0.5 23 0.5 23 0.5 23C0.5 23 0.5 23 0.5 23C0.5 23 0.5 23 0.5 23C0.5 23 0.5 23 0.5 23C0.5 23 0.5 23 0.5 23C0.5 23 0.5 23 0.5 23C0.5 23 0.5 23 0.5 23C0.5 23 0.5 23 0.5 23C0.5 23 0.5 23 0.5 23C0.5 23 0.5 23 0.5 23C0.5 23 0.5 23 0.5 23C0.5 23 0.5 23 0.5 23C0.5 23 0.5 23 0.5 23C0.5 23 0.5 23 0.5 23C0.5 23 0.5 23 0.5 23C0.5 23 0.5 23 0.5 23C0.5 23 0.5 23 0.5 23C0.5 23 0.5 23 0.5 23C0.5 23 0.5 23 0.5 23C0.5 23 0.5 23 0.5 23C0.5 23 0.5 23 0.5 23C0.5 23 0.5 23 0.5 23C0.5 23 0.5 23 0.5 23C0.5 23 0.5 23 0.5 23C0.5 23 0.5 23 0.5 23C0.5 23 0.5 23 0.5 23C0.5 23 0.5 23 0.5 23C0.5 23 0.5 23 0.5 23C0.5 23 0.5 23 0.5 23C0.5 23 0.5 23 0.5 23C0.5 23 0.5 23 0.5 23C0.5 23 0.5 23 0.5 23C0.5 23 0.5 23 0.5 23C0.5 23 0.5 23 0.5 23C0.5 23 0.5 23 0.5 23C0.5 23 0.5 23 0.5 23C0.5 23 0.5 23 0.5 23C0.5 23 0.5 23 0.5 23C0.5 23 0.5 23 0.5 23C0.5 23 0.5 23 0.5 23C0.5 23 0.5 23 0.5 23C0.5 23 0.5 23 0.5 23C0.5 23 0.5 23 0.5 23C0.5 23 0.5 23 0.5 23C0.5 23 0.5 23 0.5 23C0.5 23 0.5 23 0.5 23C0.5 23 0.5 23 0.5 23C0.5 23 0.5 23 0.5 23C0.5 23 0.5 23 0.5 23C0.5 23 0.5 23 0.5 23C0.5 23 0.5 23 0.5 23C0.5 23 0.5 23 0.5 23C0.5 23 0.5 23 0.5 23C0.5 23 0.5 23 0.5 23C0.5 23 0.5 23 0.5 23C0.5 23 0.5 23 0.5 23C0.5 23 0.5 23 0.5 23C0.5 23 0.5 23 0.5 23C0.5 23 0.5 23 0.5 23C0.5 23 0.5 23 0.5 23C0.5 23 0.5 23 0.5 23C0.5 23 0.5 23 0.5 23C0.5 23 0.5 23 0.5 23C0.5 23 0.5 23 0.5 23C0.5 23 0.5 23 0.5 23C0.5 23 0.5 23 0.5 23C0.5 23 0.5 23 0.5 23C0.5 23 0.5 23 0.5 23C0.5 23 0.5 23 0.5 23C0.5 23 0.5 23 0.5 23C0.5 23 0.5 23 0.5 23C0.5 23 0.5 23 0.5 23C0.5 23 0.5 23 0.5 23C0.5 23 0.5 23 0.5 23C0.5 23 0.5 23 0.5 23C0.5 23 0.5 23 0.5 23C0.5 23 0.5 23 0.5 23C0.5 23 0.5 23 0.5 23C0.5 23 0.5 23 0.5 23C0.5 23 0.5 23 0.5 23C0.5 23 0.5 23 0.5 23C0.5 23 0.5 23 0.5 23C0.5 23 0.5 23 0.5 23C0.5 23 0.5 23 0.5 23C0.5 23 0.5 23 0.5 23C0.5 23 0.5 23 0.5 23C0.5 23 0.5 23 0.5 23C0.5 23 0.5 23 0.5 23C0.5 23 0.5 23 0.5 23C0.5 23 0.5 23 0.5 23C0.5 23 0.5 23 0.5 23C0.5 23 0.5 23 0.5 23C0.5 23 0.5 23 0.5 23C0.5 23 0.5 23 0.5 23C0.5 23 0.5 23 0.5 23C0.5 23 0.5 23 0.5 23C0.5 23 0.5 23 0.5 23C0.5 23 0.5 23 0.5 23C0.5 23 0.5 23 0.5 23C0.5 23 0.5 23 0.5 23C0.5 23 0.5 23 0.5 23C0.5 23 0.5 23 0.5 23C0.5 23 0.5 23 0.5 23C0.5 23 0.5 23 0.5 23C0.5 23 0.5 23 0.5 23C0.5 23 0.5 23 0.5 23C0.5 23 0.5 23 0.5 23C0.5 23 0.5 23 0.5 23C0.5 23 0.5 23 0.5 23C0.5 23 0.5 23 0.5 23C0.5 23 0.5 23 0.5 23C0.5 23 0.5 23 0.5 23C0.5 23 0.5 23 0.5 23C0.5 23 0.5 23 0.5 23C0.5 23 0.5 23 0.5 23C0.5 23 0.5 23 0.5 23C0.5 23 0.5 23 0.5 23C0.5 23 0.5 23 0.5 23C0.5 23 0.5 23 0.5 23C0.5 23 0.5 23 0.5 23C0.5 23 0.5 23 0.5 23C0.5 23 0.5 23 0.5 23C0.5 23 0.5 23 0.5 23C0.5 23 0.5 23 0.5 23C0.5 23 0.5 23 0.5 23C0.5 23 0.5 23 0.5 23C0.5 23 0.5 23 0.5 23C0.5 23 0.5 23 0.5 23C0.5 23 0.5 23 0.5 23C0.5 23 0.5 23 0.5 23C0.5 23 0.5 23 0.5 23C0.5 23 0.5 23 0.5 23C0.5 23 0.5 23 0.5 23C0.5 23 0.5 23 0.5 23C0.5 23 0.5 23 0.5 23C0.5 23 0.5 23 0.5 23C0.5 23 0.5 23 0.5 23C0.5 23 0.5 23 0.5 23C0.5 23 0.5 23 0.5 23C0.5 23 0.5 23 0.5 23C0.5 23 0.5 23 0.5 23C0.5 23 0.5 23 0.5 23C0.5 23 0.5 23 0.5 23C0.5 23 0.5 23 0.5 23C0.5 23 0.5 23 0.5 23C0.5 23 0.5 23 0.5 23C0.5 23 0.5 23 0.5 23C0.5 23 0.5 23 0.5 23C0.5 23 0.5 23 0.5 23C0.5 23 0.5 23 0.5 23C0.5 23 0.5 23 0.5 23C0.5 23 0.5 23 0.5 23C0.5 23 0.5 23 0.5 23C0.5 23 0.5 23 0.5 23C0.5 23 0.5 23 0.5 23C0.5 23 0.5 23 0.5 23C0.5 23 0.5 23 0.5 23C0.5 23 0.5 23 0.5 23C0.5 23 0.5 23 0.5 23C0.5 23 0.5 23 0.5 23C0.5 23 0.5 23 0.5 23C0.5 23 0.5 23 0.5 23C0.5 23 0.5 23 0.5 23C0.5 23 0.5 23 0.5 23C0.5 23 0.5 23 0.5 23C0.5 23 0.5 23 0.5 23C0.5 23 0.5 23 0.5 23C0.5 23 0.5 23 0.5 23C0.5 23 0.5 23 0.5 23C0.5 23 0.5 23 0.5 23C0.5 23 0.5 23 0.5 23C0.5 23 0.5 23 0.5 23C0.5 23 0.5 23 0.5 23C0.5 23 0.5 23 0.5 23C0.5 23 0.5 23 0.5 23C0.5 23 0.5 23 0.5 23C0.5 23 0.5 23 0.5 23C0.5 23 0.5 23 0.5 23C0.5 23 0.5 23 0.5 23C0.5 23 0.5 23 0.5 23C0.5 23 0.5 23 0.5 23C0.5 23 0.5 23 0.5 23C0.5 23 0.5 23 0.5 23C0.5 23 0.5 23 0.5 23C0.5 23 0.5 23 0.5 23C0.5 23 0.5 23 0.5 23C0.5 23 0.5 23 0.5 23C0.5 23 0.5 23 0.5 23C0.5 23 0.5 23 0.5 23C0.5 23 0.5 23 0.5 23C0.5 23 0.5 23 0.5 23C0.5 23 0.5 23 0.5 23C0.5 23 0.5 23 0.5 23C0.5 23 0.5 23 0.5 23C0.5 23 0.5 23 0.5 23C0.5 23 0.5 23 0.5 23C0.5 23 0.5 23 0.5 23C0.5 23 0.5 23 0.5 23C0.5 23 0.5 23 0.5 23C0.5 23 0.5 23 0.5 23C0.5 23 0.5 23 0.5 23C0.5 23 0.5 23 0.5 23C0.5 23 0.5 23 0.5 23C0.5 23 0.5 23 0.5 23C0.5 23 0.5 23 0.5 23C0.5 23 0.5 23 0.5 23C0.5 23 0.5 23 0.5 23C0.5 23 0.5 23 0.5 23C0.5 23 0.5 23 0.5 23C0.5 23 0.5 23 0.5 23C0.5 23 0.5 23 0.5 23C0.5 23 0.5 23 0.5 23C0.5 23 0.5 23 0.5 23C0.5 23 0.5 23 0.5 23C0.5 23 0.5 23 0.5 23C0.5 23 0.5 23 0.5 23C0.5 23 0.5 23 0.5 23C0.5 23 0.5 23 0.5 23C0.5 23 0.5 23 0.5 23C0.5 23 0.5 23 0.5 23C0.5 23 0.5 23 0.5 23C0.5 23 0.5 23 0.5 23C0.5 23 0.5 23 0.5 23C0.5 23 0.5 23 0.5 23C0.5 23 0.5 23 0.5 23C0.5 23 0.5 23 0.5 23C0.5 23 0.5 23 0.5 23C0.5 23 0.5 23 0.5 23C0.5 23 0.5 23 0.5 23C0.5 23 0.5 23 0.5 23C0.5 23 0.5 23 0.5 23C0.5 23 0.5 23 0.5 23C0.5 23 0.5 23 0.5 23C0.5 23 0.5 23 0.5 23C0.5 23 0.5 23 0.5 23C0.5 23 0.5 23 0.5 23C0.5 23 0.5 23 0.5 23C0.5 23 0.5 23 0.5 23C0.5 23 0.5 23 0.5 23C0.5 23 0.5 23 0.5 23C0.5 23 0.5 23 0.5 23C0.5 23 0.5 23 0.5 23C0.5 23 0.5 23 0.5 23C0.5 23 0.5 23 0.5 23C0.5 23 0.5 23 0.5 23C0.5 23 0.5 23 0.5 23C0.5 23 0.5 23 0.5 23C0.5 23 0.5 23 0.5 23C0.5 23 0.5 23 0.5 23C0.5 23 0.5 23 0.5 23C0.5 23 0.5 23 0.5 23C0.5 23 0.5 23 0.5 23C0.5 23 0.5 23 0.5 23C0.5 23 0.5 23 0.5 23C0.5 23 0.5 23 0.5 23C0.5 23 0.5 23 0.5 23C0.5 23 0.5 23 0.5 23C0.5 23 0.5 23 0.5 23C0.5 23 0.5 23 0.5 23C0.5 23 0.5 23 0.5 23C0.5 23 0.5 23 0.5 23C0.5 23 0.5 23 0.5 23C0.5 23 0.5 23 0.5 23C0.5 23 0.5 23 0.5 23C0.5 23 0.5 23 0.5 23C0.5 23 0.5 23 0.5 23C0.5 23 0.5 23 0.5 23C0.5 23 0.5 23 0.5 23C0.5 23 0.5 23 0.5 23C0.5 23 0.5 23 0.5 23C0.5 23 0.5 23 0.5 23C0.5 23 0.5 23 0.5 23C0.5 23 0.5 23 0.5 23C0.5 23 0.5 23 0.5 23C0.5 23 0.5 23 0.5 23C0.5 23 0.5 23 0.5 23C0.5 23 0.5 23 0.5 23C0.5 23 0.5 23 0.5 23C0.5 23 0.5 23 0.5 23C0.5 23 0.5 23 0.5 23C0.5 23 0.5 23 0.5 23C0.5 23 0.5 23 0.5 23C0.5 23 0.5 23 0.5 23C0.5 23 0.5 23 0.5 23C0.5 23 0.5 23 0.5 23C0.5 23 0.5 23 0.5 23C0.5 23 0.5 23 0.5 23C0.5 23 0.5 23 0.5 23C0.5 23 0.5 23 0.5 23C0.5 23 0.5 23 0.5 23C0.5 23 0.5 23 0.5 23C0.5 23 0.5 23 0.5 23C0.5 23 0.5 23 0.5 23C0.5 23 0.5 23 0.5 23C0.5 23 0.5 23 0.5 23C0.5 23 0.5 23 0.5 23C0.5 23 0.5 23 0.5 23C0.5 23 0.5 23 0.5 23C0.5 23 0.5 23 0.5 23C0.5 23 0.5 23 0.5 23C0.5 23 0.5 23 0.5 23C0.5 23 0.5 23 0.5 23C0.5 23 0.5 23 0.5 23C0.5 23 0.5 23 0.5 23C0.5 23 0.5 23 0.5 23C0.5 23 0.5 23 0.5 23C0.5 23 0.5 23 0.5 23C0.5 23 0.5 23 0.5 23C0.5 23 0.5 23 0.5 23C0.5 23 0.5 23 0.5 23C0.5 23 0.5 23 0.5 23H3.5ZM3.5 30.7419V23H0.5V30.7419H3.5ZM11.2903 29.2419H2V32.2419H11.2903V29.2419ZM9.79032 23V30.7419H12.7903V23H9.79032Z" fill="white" fill-opacity="0.7"/>
<path d="M16 24.7419H14.5C14.5 25.5704 15.1716 26.2419 16 26.2419V24.7419ZM25.2903 24.7419V26.2419C26.1187 26.2419 26.7903 25.5704 26.7903 24.7419H25.2903ZM20.6452 13.8548C22.3822 13.8548 23.7903 15.263 23.7903 17H26.7903C26.7903 13.6061 24.039 10.8548 20.6452 10.8548V13.8548ZM17.5 17C17.5 15.263 18.9081 13.8548 20.6452 13.8548V10.8548C17.2513 10.8548 14.5 13.6061 14.5 17H17.5ZM17.5 17C17.5 17 17.5 17 17.5 17C17.5 17 17.5 17 17.5 17C17.5 17 17.5 17 17.5 17C17.5 17 17.5 17 17.5 17C17.5 17 17.5 17 17.5 17C17.5 17 17.5 17 17.5 17C17.5 17 17.5 17 17.5 17C17.5 17 17.5 17 17.5 17C17.5 17 17.5 17 17.5 17C17.5 17 17.5 17 17.5 17C17.5 17 17.5 17 17.5 17C17.5 17 17.5 17 17.5 17C17.5 17 17.5 17 17.5 17C17.5 17 17.5 17 17.5 17C17.5 17 17.5 17 17.5 17C17.5 17 17.5 17 17.5 17C17.5 17 17.5 17 17.5 17C17.5 17 17.5 17 17.5 17C17.5 17 17.5 17 17.5 17C17.5 17 17.5 17 17.5 17C17.5 17 17.5 17 17.5 17C17.5 17 17.5 17 17.5 17C17.5 17 17.5 17 17.5 17C17.5 17 17.5 17 17.5 17C17.5 17 17.5 17 17.5 17C17.5 17 17.5 17 17.5 17C17.5 17 17.5 17 17.5 17C17.5 17 17.5 17 17.5 17C17.5 17 17.5 17 17.5 17C17.5 17 17.5 17 17.5 17C17.5 17 17.5 17 17.5 17C17.5 17 17.5 17 17.5 17C17.5 17 17.5 17 17.5 17C17.5 17 17.5 17 17.5 17C17.5 17 17.5 17 17.5 17C17.5 17 17.5 17 17.5 17C17.5 17 17.5 17 17.5 17C17.5 17 17.5 17 17.5 17C17.5 17 17.5 17 17.5 17C17.5 17 17.5 17 17.5 17C17.5 17 17.5 17 17.5 17C17.5 17 17.5 17 17.5 17C17.5 17 17.5 17 17.5 17C17.5 17 17.5 17 17.5 17C17.5 17 17.5 17 17.5 17C17.5 17 17.5 17 17.5 17C17.5 17 17.5 17 17.5 17C17.5 17 17.5 17 17.5 17C17.5 17 17.5 17 17.5 17C17.5 17 17.5 17 17.5 17C17.5 17 17.5 17 17.5 17C17.5 17 17.5 17 17.5 17C17.5 17 17.5 17 17.5 17C17.5 17 17.5 17 17.5 17C17.5 17 17.5 17 17.5 17C17.5 17 17.5 17 17.5 17C17.5 17 17.5 17 17.5 17C17.5 17 17.5 17 17.5 17C17.5 17 17.5 17 17.5 17C17.5 17 17.5 17 17.5 17C17.5 17 17.5 17 17.5 17C17.5 17 17.5 17 17.5 17C17.5 17 17.5 17 17.5 17C17.5 17 17.5 17 17.5 17C17.5 17 17.5 17 17.5 17C17.5 17 17.5 17 17.5 17C17.5 17 17.5 17 17.5 17C17.5 17 17.5 17 17.5 17C17.5 17 17.5 17 17.5 17C17.5 17 17.5 17 17.5 17C17.5 17 17.5 17 17.5 17C17.5 17 17.5 17 17.5 17C17.5 17 17.5 17 17.5 17C17.5 17 17.5 17 17.5 17C17.5 17 17.5 17 17.5 17C17.5 17 17.5 17 17.5 17C17.5 17 17.5 17 17.5 17C17.5 17 17.5 17 17.5 17C17.5 17 17.5 17 17.5 17C17.5 17 17.5 17 17.5 17C17.5 17 17.5 17 17.5 17C17.5 17 17.5 17 17.5 17C17.5 17 17.5 17 17.5 17C17.5 17 17.5 17 17.5 17C17.5 17 17.5 17 17.5 17C17.5 17 17.5 17 17.5 17C17.5 17 17.5 17 17.5 17C17.5 17 17.5 17 17.5 17C17.5 17 17.5 17 17.5 17C17.5 17 17.5 17 17.5 17C17.5 17 17.5 17 17.5 17C17.5 17 17.5 17 17.5 17C17.5 17 17.5 17 17.5 17C17.5 17 17.5 17 17.5 17C17.5 17 17.5 17 17.5 17C17.5 17 17.5 17 17.5 17C17.5 17 17.5 17 17.5 17C17.5 17 17.5 17 17.5 17C17.5 17 17.5 17 17.5 17C17.5 17 17.5 17 17.5 17C17.5 17 17.5 17 17.5 17C17.5 17 17.5 17 17.5 17C17.5 17 17.5 17 17.5 17C17.5 17 17.5 17 17.5 17C17.5 17 17.5 17 17.5 17C17.5 17 17.5 17 17.5 17C17.5 17 17.5 17 17.5 17C17.5 17 17.5 17 17.5 17C17.5 17 17.5 17 17.5 17C17.5 17 17.5 17 17.5 17C17.5 17 17.5 17 17.5 17C17.5 17 17.5 17 17.5 17C17.5 17 17.5 17 17.5 17C17.5 17 17.5 17 17.5 17C17.5 17 17.5 17 17.5 17C17.5 17 17.5 17 17.5 17C17.5 17 17.5 17 17.5 17C17.5 17 17.5 17 17.5 17C17.5 17 17.5 17 17.5 17C17.5 17 17.5 17 17.5 17C17.5 17 17.5 17 17.5 17C17.5 17 17.5 17 17.5 17C17.5 17 17.5 17 17.5 17C17.5 17 17.5 17 17.5 17C17.5 17 17.5 17 17.5 17C17.5 17 17.5 17 17.5 17C17.5 17 17.5 17 17.5 17C17.5 17 17.5 17 17.5 17C17.5 17 17.5 17 17.5 17C17.5 17 17.5 17 17.5 17C17.5 17 17.5 17 17.5 17C17.5 17 17.5 17 17.5 17C17.5 17 17.5 17 17.5 17C17.5 17 17.5 17 17.5 17C17.5 17 17.5 17 17.5 17C17.5 17 17.5 17 17.5 17C17.5 17 17.5 17 17.5 17C17.5 17 17.5 17 17.5 17C17.5 17 17.5 17 17.5 17C17.5 17 17.5 17 17.5 17C17.5 17 17.5 17 17.5 17C17.5 17 17.5 17 17.5 17C17.5 17 17.5 17 17.5 17C17.5 17 17.5 17 17.5 17C17.5 17 17.5 17 17.5 17C17.5 17 17.5 17 17.5 17C17.5 17 17.5 17 17.5 17C17.5 17 17.5 17 17.5 17C17.5 17 17.5 17 17.5 17C17.5 17 17.5 17 17.5 17C17.5 17 17.5 17 17.5 17C17.5 17 17.5 17 17.5 17C17.5 17 17.5 17 17.5 17C17.5 17 17.5 17 17.5 17C17.5 17 17.5 17 17.5 17C17.5 17 17.5 17 17.5 17C17.5 17 17.5 17 17.5 17C17.5 17 17.5 17 17.5 17C17.5 17 17.5 17 17.5 17C17.5 17 17.5 17 17.5 17C17.5 17 17.5 17 17.5 17C17.5 17 17.5 17 17.5 17C17.5 17 17.5 17 17.5 17C17.5 17 17.5 17 17.5 17C17.5 17 17.5 17 17.5 17C17.5 17 17.5 17 17.5 17C17.5 17 17.5 17 17.5 17C17.5 17 17.5 17 17.5 17C17.5 17 17.5 17 17.5 17C17.5 17 17.5 17 17.5 17C17.5 17 17.5 17 17.5 17C17.5 17 17.5 17 17.5 17C17.5 17 17.5 17 17.5 17C17.5 17 17.5 17 17.5 17C17.5 17 17.5 17 17.5 17C17.5 17 17.5 17 17.5 17C17.5 17 17.5 17 17.5 17C17.5 17 17.5 17 17.5 17C17.5 17 17.5 17 17.5 17C17.5 17 17.5 17 17.5 17C17.5 17 17.5 17 17.5 17C17.5 17 17.5 17 17.5 17C17.5 17 17.5 17 17.5 17C17.5 17 17.5 17 17.5 17C17.5 17 17.5 17 17.5 17C17.5 17 17.5 17 17.5 17C17.5 17 17.5 17 17.5 17C17.5 17 17.5 17 17.5 17C17.5 17 17.5 17 17.5 17C17.5 17 17.5 17 17.5 17C17.5 17 17.5 17 17.5 17C17.5 17 17.5 17 17.5 17C17.5 17 17.5 17 17.5 17C17.5 17 17.5 17 17.5 17C17.5 17 17.5 17 17.5 17C17.5 17 17.5 17 17.5 17C17.5 17 17.5 17 17.5 17C17.5 17 17.5 17 17.5 17C17.5 17 17.5 17 17.5 17C17.5 17 17.5 17 17.5 17C17.5 17 17.5 17 17.5 17C17.5 17 17.5 17 17.5 17C17.5 17 17.5 17 17.5 17C17.5 17 17.5 17 17.5 17C17.5 17 17.5 17 17.5 17C17.5 17 17.5 17 17.5 17C17.5 17 17.5 17 17.5 17C17.5 17 17.5 17 17.5 17C17.5 17 17.5 17 17.5 17C17.5 17 17.5 17 17.5 17C17.5 17 17.5 17 17.5 17C17.5 17 17.5 17 17.5 17C17.5 17 17.5 17 17.5 17C17.5 17 17.5 17 17.5 17C17.5 17 17.5 17 17.5 17C17.5 17 17.5 17 17.5 17C17.5 17 17.5 17 17.5 17C17.5 17 17.5 17 17.5 17C17.5 17 17.5 17 17.5 17C17.5 17 17.5 17 17.5 17C17.5 17 17.5 17 17.5 17C17.5 17 17.5 17 17.5 17C17.5 17 17.5 17 17.5 17C17.5 17 17.5 17 17.5 17C17.5 17 17.5 17 17.5 17C17.5 17 17.5 17 17.5 17C17.5 17 17.5 17 17.5 17C17.5 17 17.5 17 17.5 17C17.5 17 17.5 17 17.5 17C17.5 17 17.5 17 17.5 17C17.5 17 17.5 17 17.5 17C17.5 17 17.5 17 17.5 17C17.5 17 17.5 17 17.5 17C17.5 17 17.5 17 17.5 17C17.5 17 17.5 17 17.5 17C17.5 17 17.5 17 17.5 17C17.5 17 17.5 17 17.5 17C17.5 17 17.5 17 17.5 17C17.5 17 17.5 17 17.5 17C17.5 17 17.5 17 17.5 17C17.5 17 17.5 17 17.5 17C17.5 17 17.5 17 17.5 17C17.5 17 17.5 17 17.5 17C17.5 17 17.5 17 17.5 17C17.5 17 17.5 17 17.5 17C17.5 17 17.5 17 17.5 17C17.5 17 17.5 17 17.5 17C17.5 17 17.5 17 17.5 17C17.5 17 17.5 17 17.5 17C17.5 17 17.5 17 17.5 17C17.5 17 17.5 17 17.5 17C17.5 17 17.5 17 17.5 17C17.5 17 17.5 17 17.5 17C17.5 17 17.5 17 17.5 17C17.5 17 17.5 17 17.5 17C17.5 17 17.5 17 17.5 17C17.5 17 17.5 17 17.5 17C17.5 17 17.5 17 17.5 17C17.5 17 17.5 17 17.5 17C17.5 17 17.5 17 17.5 17C17.5 17 17.5 17 17.5 17C17.5 17 17.5 17 17.5 17C17.5 17 17.5 17 17.5 17C17.5 17 17.5 17 17.5 17C17.5 17 17.5 17 17.5 17C17.5 17 17.5 17 17.5 17C17.5 17 17.5 17 17.5 17C17.5 17 17.5 17 17.5 17C17.5 17 17.5 17 17.5 17C17.5 17 17.5 17 17.5 17C17.5 17 17.5 17 17.5 17C17.5 17 17.5 17 17.5 17C17.5 17 17.5 17 17.5 17C17.5 17 17.5 17 17.5 17C17.5 17 17.5 17 17.5 17C17.5 17 17.5 17 17.5 17C17.5 17 17.5 17 17.5 17C17.5 17 17.5 17 17.5 17C17.5 17 17.5 17 17.5 17C17.5 17 17.5 17 17.5 17C17.5 17 17.5 17 17.5 17C17.5 17 17.5 17 17.5 17C17.5 17 17.5 17 17.5 17C17.5 17 17.5 17 17.5 17C17.5 17 17.5 17 17.5 17C17.5 17 17.5 17 17.5 17C17.5 17 17.5 17 17.5 17C17.5 17 17.5 17 17.5 17C17.5 17 17.5 17 17.5 17C17.5 17 17.5 17 17.5 17C17.5 17 17.5 17 17.5 17C17.5 17 17.5 17 17.5 17C17.5 17 17.5 17 17.5 17C17.5 17 17.5 17 17.5 17C17.5 17 17.5 17 17.5 17C17.5 17 17.5 17 17.5 17C17.5 17 17.5 17 17.5 17C17.5 17 17.5 17 17.5 17C17.5 17 17.5 17 17.5 17C17.5 17 17.5 17 17.5 17C17.5 17 17.5 17 17.5 17C17.5 17 17.5 17 17.5 17C17.5 17 17.5 17 17.5 17C17.5 17 17.5 17 17.5 17C17.5 17 17.5 17 17.5 17C17.5 17 17.5 17 17.5 17C17.5 17 17.5 17 17.5 17C17.5 17 17.5 17 17.5 17C17.5 17 17.5 17 17.5 17C17.5 17 17.5 17 17.5 17C17.5 17 17.5 17 17.5 17C17.5 17 17.5 17 17.5 17C17.5 17 17.5 17 17.5 17C17.5 17 17.5 17 17.5 17C17.5 17 17.5 17 17.5 17C17.5 17 17.5 17 17.5 17C17.5 17 17.5 17 17.5 17C17.5 17 17.5 17 17.5 17C17.5 17 17.5 17 17.5 17C17.5 17 17.5 17 17.5 17C17.5 17 17.5 17 17.5 17C17.5 17 17.5 17 17.5 17C17.5 17 17.5 17 17.5 17C17.5 17 17.5 17 17.5 17C17.5 17 17.5 17 17.5 17C17.5 17 17.5 17 17.5 17C17.5 17 17.5 17 17.5 17C17.5 17 17.5 17 17.5 17C17.5 17 17.5 17 17.5 17C17.5 17 17.5 17 17.5 17C17.5 17 17.5 17 17.5 17C17.5 17 17.5 17 17.5 17C17.5 17 17.5 17 17.5 17C17.5 17 17.5 17 17.5 17C17.5 17 17.5 17 17.5 17C17.5 17 17.5 17 17.5 17C17.5 17 17.5 17 17.5 17C17.5 17 17.5 17 17.5 17C17.5 17 17.5 17 17.5 17C17.5 17 17.5 17 17.5 17C17.5 17 17.5 17 17.5 17C17.5 17 17.5 17 17.5 17C17.5 17 17.5 17 17.5 17C17.5 17 17.5 17 17.5 17C17.5 17 17.5 17 17.5 17C17.5 17 17.5 17 17.5 17C17.5 17 17.5 17 17.5 17C17.5 17 17.5 17 17.5 17C17.5 17 17.5 17 17.5 17C17.5 17 17.5 17 17.5 17C17.5 17 17.5 17 17.5 17C17.5 17 17.5 17 17.5 17C17.5 17 17.5 17 17.5 17C17.5 17 17.5 17 17.5 17C17.5 17 17.5 17 17.5 17C17.5 17 17.5 17 17.5 17C17.5 17 17.5 17 17.5 17C17.5 17 17.5 17 17.5 17C17.5 17 17.5 17 17.5 17C17.5 17 17.5 17 17.5 17C17.5 17 17.5 17 17.5 17C17.5 17 17.5 17 17.5 17C17.5 17 17.5 17 17.5 17C17.5 17 17.5 17 17.5 17C17.5 17 17.5 17 17.5 17C17.5 17 17.5 17 17.5 17C17.5 17 17.5 17 17.5 17C17.5 17 17.5 17 17.5 17C17.5 17 17.5 17 17.5 17C17.5 17 17.5 17 17.5 17C17.5 17 17.5 17 17.5 17C17.5 17 17.5 17 17.5 17C17.5 17 17.5 17 17.5 17C17.5 17 17.5 17 17.5 17C17.5 17 17.5 17 17.5 17C17.5 17 17.5 17 17.5 17C17.5 17 17.5 17 17.5 17C17.5 17 17.5 17 17.5 17C17.5 17 17.5 17 17.5 17C17.5 17 17.5 17 17.5 17C17.5 17 17.5 17 17.5 17C17.5 17 17.5 17 17.5 17C17.5 17 17.5 17 17.5 17C17.5 17 17.5 17 17.5 17C17.5 17 17.5 17 17.5 17C17.5 17 17.5 17 17.5 17C17.5 17 17.5 17 17.5 17C17.5 17 17.5 17 17.5 17C17.5 17 17.5 17 17.5 17C17.5 17 17.5 17 17.5 17C17.5 17 17.5 17 17.5 17C17.5 17 17.5 17 17.5 17C17.5 17 17.5 17 17.5 17C17.5 17 17.5 17 17.5 17C17.5 17 17.5 17 17.5 17C17.5 17 17.5 17 17.5 17C17.5 17 17.5 17 17.5 17C17.5 17 17.5 17 17.5 17C17.5 17 17.5 17 17.5 17C17.5 17 17.5 17 17.5 17C17.5 17 17.5 17 17.5 17C17.5 17 17.5 17 17.5 17C17.5 17 17.5 17 17.5 17C17.5 17 17.5 17 17.5 17C17.5 17 17.5 17 17.5 17C17.5 17 17.5 17 17.5 17C17.5 17 17.5 17 17.5 17C17.5 17 17.5 17 17.5 17C17.5 17 17.5 17 17.5 17C17.5 17 17.5 17 17.5 17C17.5 17 17.5 17 17.5 17C17.5 17 17.5 17 17.5 17C17.5 17 17.5 17 17.5 17C17.5 17 17.5 17 17.5 17C17.5 17 17.5 17 17.5 17C17.5 17 17.5 17 17.5 17C17.5 17 17.5 17 17.5 17C17.5 17 17.5 17 17.5 17C17.5 17 17.5 17 17.5 17C17.5 17 17.5 17 17.5 17C17.5 17 17.5 17 17.5 17C17.5 17 17.5 17 17.5 17C17.5 17 17.5 17 17.5 17C17.5 17 17.5 17 17.5 17C17.5 17 17.5 17 17.5 17C17.5 17 17.5 17 17.5 17C17.5 17 17.5 17 17.5 17C17.5 17 17.5 17 17.5 17C17.5 17 17.5 17 17.5 17C17.5 17 17.5 17 17.5 17C17.5 17 17.5 17 17.5 17C17.5 17 17.5 17 17.5 17C17.5 17 17.5 17 17.5 17C17.5 17 17.5 17 17.5 17C17.5 17 17.5 17 17.5 17C17.5 17 17.5 17 17.5 17C17.5 17 17.5 17 17.5 17C17.5 17 17.5 17 17.5 17C17.5 17 17.5 17 17.5 17C17.5 17 17.5 17 17.5 17C17.5 17 17.5 17 17.5 17C17.5 17 17.5 17 17.5 17C17.5 17 17.5 17 17.5 17C17.5 17 17.5 17 17.5 17C17.5 17 17.5 17 17.5 17C17.5 17 17.5 17 17.5 17C17.5 17 17.5 17 17.5 17C17.5 17 17.5 17 17.5 17C17.5 17 17.5 17 17.5 17C17.5 17 17.5 17 17.5 17C17.5 17 17.5 17 17.5 17C17.5 17 17.5 17 17.5 17C17.5 17 17.5 17 17.5 17C17.5 17 17.5 17 17.5 17C17.5 17 17.5 17 17.5 17C17.5 17 17.5 17 17.5 17C17.5 17 17.5 17 17.5 17C17.5 17 17.5 17 17.5 17C17.5 17 17.5 17 17.5 17C17.5 17 17.5 17 17.5 17C17.5 17 17.5 17 17.5 17C17.5 17 17.5 17 17.5 17C17.5 17 17.5 17 17.5 17C17.5 17 17.5 17 17.5 17C17.5 17 17.5 17 17.5 17C17.5 17 17.5 17 17.5 17C17.5 17 17.5 17 17.5 17C17.5 17 17.5 17 17.5 17C17.5 17 17.5 17 17.5 17C17.5 17 17.5 17 17.5 17C17.5 17 17.5 17 17.5 17C17.5 17 17.5 17 17.5 17C17.5 17 17.5 17 17.5 17C17.5 17 17.5 17 17.5 17C17.5 17 17.5 17 17.5 17C17.5 17 17.5 17 17.5 17C17.5 17 17.5 17 17.5 17C17.5 17 17.5 17 17.5 17C17.5 17 17.5 17 17.5 17C17.5 17 17.5 17 17.5 17C17.5 17 17.5 17 17.5 17C17.5 17 17.5 17 17.5 17C17.5 17 17.5 17 17.5 17C17.5 17 17.5 17 17.5 17C17.5 17 17.5 17 17.5 17C17.5 17 17.5 17 17.5 17C17.5 17 17.5 17 17.5 17C17.5 17 17.5 17 17.5 17C17.5 17 17.5 17 17.5 17C17.5 17 17.5 17 17.5 17C17.5 17 17.5 17 17.5 17C17.5 17 17.5 17 17.5 17C17.5 17 17.5 17 17.5 17C17.5 17 17.5 17 17.5 17C17.5 17 17.5 17 17.5 17C17.5 17 17.5 17 17.5 17C17.5 17 17.5 17 17.5 17C17.5 17 17.5 17 17.5 17C17.5 17 17.5 17 17.5 17C17.5 17 17.5 17 17.5 17C17.5 17 17.5 17 17.5 17C17.5 17 17.5 17 17.5 17C17.5 17 17.5 17 17.5 17C17.5 17 17.5 17 17.5 17C17.5 17 17.5 17 17.5 17C17.5 17 17.5 17 17.5 17C17.5 17 17.5 17 17.5 17C17.5 17 17.5 17 17.5 17C17.5 17 17.5 17 17.5 17C17.5 17 17.5 17 17.5 17C17.5 17 17.5 17 17.5 17C17.5 17 17.5 17 17.5 17H14.5C14.5 17 14.5 17 14.5 17C14.5 17 14.5 17 14.5 17C14.5 17 14.5 17 14.5 17C14.5 17 14.5 17 14.5 17C14.5 17 14.5 17 14.5 17C14.5 17 14.5 17 14.5 17C14.5 17 14.5 17 14.5 17C14.5 17 14.5 17 14.5 17C14.5 17 14.5 17 14.5 17C14.5 17 14.5 17 14.5 17C14.5 17 14.5 17 14.5 17C14.5 17 14.5 17 14.5 17C14.5 17 14.5 17 14.5 17C14.5 17 14.5 17 14.5 17C14.5 17 14.5 17 14.5 17C14.5 17 14.5 17 14.5 17C14.5 17 14.5 17 14.5 17C14.5 17 14.5 17 14.5 17C14.5 17 14.5 17 14.5 17C14.5 17 14.5 17 14.5 17C14.5 17 14.5 17 14.5 17C14.5 17 14.5 17 14.5 17C14.5 17 14.5 17 14.5 17C14.5 17 14.5 17 14.5 17C14.5 17 14.5 17 14.5 17C14.5 17 14.5 17 14.5 17C14.5 17 14.5 17 14.5 17C14.5 17 14.5 17 14.5 17C14.5 17 14.5 17 14.5 17C14.5 17 14.5 17 14.5 17C14.5 17 14.5 17 14.5 17C14.5 17 14.5 17 14.5 17C14.5 17 14.5 17 14.5 17C14.5 17 14.5 17 14.5 17C14.5 17 14.5 17 14.5 17C14.5 17 14.5 17 14.5 17C14.5 17 14.5 17 14.5 17C14.5 17 14.5 17 14.5 17C14.5 17 14.5 17 14.5 17C14.5 17 14.5 17 14.5 17C14.5 17 14.5 17 14.5 17C14.5 17 14.5 17 14.5 17C14.5 17 14.5 17 14.5 17C14.5 17 14.5 17 14.5 17C14.5 17 14.5 17 14.5 17C14.5 17 14.5 17 14.5 17C14.5 17 14.5 17 14.5 17C14.5 17 14.5 17 14.5 17C14.5 17 14.5 17 14.5 17C14.5 17 14.5 17 14.5 17C14.5 17 14.5 17 14.5 17C14.5 17 14.5 17 14.5 17C14.5 17 14.5 17 14.5 17C14.5 17 14.5 17 14.5 17C14.5 17 14.5 17 14.5 17C14.5 17 14.5 17 14.5 17C14.5 17 14.5 17 14.5 17C14.5 17 14.5 17 14.5 17C14.5 17 14.5 17 14.5 17C14.5 17 14.5 17 14.5 17C14.5 17 14.5 17 14.5 17C14.5 17 14.5 17 14.5 17C14.5 17 14.5 17 14.5 17C14.5 17 14.5 17 14.5 17C14.5 17 14.5 17 14.5 17C14.5 17 14.5 17 14.5 17C14.5 17 14.5 17 14.5 17C14.5 17 14.5 17 14.5 17C14.5 17 14.5 17 14.5 17C14.5 17 14.5 17 14.5 17C14.5 17 14.5 17 14.5 17C14.5 17 14.5 17 14.5 17C14.5 17 14.5 17 14.5 17C14.5 17 14.5 17 14.5 17C14.5 17 14.5 17 14.5 17C14.5 17 14.5 17 14.5 17C14.5 17 14.5 17 14.5 17C14.5 17 14.5 17 14.5 17C14.5 17 14.5 17 14.5 17C14.5 17 14.5 17 14.5 17C14.5 17 14.5 17 14.5 17C14.5 17 14.5 17 14.5 17C14.5 17 14.5 17 14.5 17C14.5 17 14.5 17 14.5 17C14.5 17 14.5 17 14.5 17C14.5 17 14.5 17 14.5 17C14.5 17 14.5 17 14.5 17C14.5 17 14.5 17 14.5 17C14.5 17 14.5 17 14.5 17C14.5 17 14.5 17 14.5 17C14.5 17 14.5 17 14.5 17C14.5 17 14.5 17 14.5 17C14.5 17 14.5 17 14.5 17C14.5 17 14.5 17 14.5 17C14.5 17 14.5 17 14.5 17C14.5 17 14.5 17 14.5 17C14.5 17 14.5 17 14.5 17C14.5 17 14.5 17 14.5 17C14.5 17 14.5 17 14.5 17C14.5 17 14.5 17 14.5 17C14.5 17 14.5 17 14.5 17C14.5 17 14.5 17 14.5 17C14.5 17 14.5 17 14.5 17C14.5 17 14.5 17 14.5 17C14.5 17 14.5 17 14.5 17C14.5 17 14.5 17 14.5 17C14.5 17 14.5 17 14.5 17C14.5 17 14.5 17 14.5 17C14.5 17 14.5 17 14.5 17C14.5 17 14.5 17 14.5 17C14.5 17 14.5 17 14.5 17C14.5 17 14.5 17 14.5 17C14.5 17 14.5 17 14.5 17C14.5 17 14.5 17 14.5 17C14.5 17 14.5 17 14.5 17C14.5 17 14.5 17 14.5 17C14.5 17 14.5 17 14.5 17C14.5 17 14.5 17 14.5 17C14.5 17 14.5 17 14.5 17C14.5 17 14.5 17 14.5 17C14.5 17 14.5 17 14.5 17C14.5 17 14.5 17 14.5 17C14.5 17 14.5 17 14.5 17C14.5 17 14.5 17 14.5 17C14.5 17 14.5 17 14.5 17C14.5 17 14.5 17 14.5 17C14.5 17 14.5 17 14.5 17C14.5 17 14.5 17 14.5 17C14.5 17 14.5 17 14.5 17C14.5 17 14.5 17 14.5 17C14.5 17 14.5 17 14.5 17C14.5 17 14.5 17 14.5 17C14.5 17 14.5 17 14.5 17C14.5 17 14.5 17 14.5 17C14.5 17 14.5 17 14.5 17C14.5 17 14.5 17 14.5 17C14.5 17 14.5 17 14.5 17C14.5 17 14.5 17 14.5 17C14.5 17 14.5 17 14.5 17C14.5 17 14.5 17 14.5 17C14.5 17 14.5 17 14.5 17C14.5 17 14.5 17 14.5 17C14.5 17 14.5 17 14.5 17C14.5 17 14.5 17 14.5 17C14.5 17 14.5 17 14.5 17C14.5 17 14.5 17 14.5 17C14.5 17 14.5 17 14.5 17C14.5 17 14.5 17 14.5 17C14.5 17 14.5 17 14.5 17C14.5 17 14.5 17 14.5 17C14.5 17 14.5 17 14.5 17C14.5 17 14.5 17 14.5 17C14.5 17 14.5 17 14.5 17C14.5 17 14.5 17 14.5 17C14.5 17 14.5 17 14.5 17C14.5 17 14.5 17 14.5 17C14.5 17 14.5 17 14.5 17C14.5 17 14.5 17 14.5 17C14.5 17 14.5 17 14.5 17C14.5 17 14.5 17 14.5 17C14.5 17 14.5 17 14.5 17C14.5 17 14.5 17 14.5 17C14.5 17 14.5 17 14.5 17C14.5 17 14.5 17 14.5 17C14.5 17 14.5 17 14.5 17C14.5 17 14.5 17 14.5 17C14.5 17 14.5 17 14.5 17C14.5 17 14.5 17 14.5 17C14.5 17 14.5 17 14.5 17C14.5 17 14.5 17 14.5 17C14.5 17 14.5 17 14.5 17C14.5 17 14.5 17 14.5 17C14.5 17 14.5 17 14.5 17C14.5 17 14.5 17 14.5 17C14.5 17 14.5 17 14.5 17C14.5 17 14.5 17 14.5 17C14.5 17 14.5 17 14.5 17C14.5 17 14.5 17 14.5 17C14.5 17 14.5 17 14.5 17C14.5 17 14.5 17 14.5 17C14.5 17 14.5 17 14.5 17C14.5 17 14.5 17 14.5 17C14.5 17 14.5 17 14.5 17C14.5 17 14.5 17 14.5 17C14.5 17 14.5 17 14.5 17C14.5 17 14.5 17 14.5 17C14.5 17 14.5 17 14.5 17C14.5 17 14.5 17 14.5 17C14.5 17 14.5 17 14.5 17C14.5 17 14.5 17 14.5 17C14.5 17 14.5 17 14.5 17C14.5 17 14.5 17 14.5 17C14.5 17 14.5 17 14.5 17C14.5 17 14.5 17 14.5 17C14.5 17 14.5 17 14.5 17C14.5 17 14.5 17 14.5 17C14.5 17 14.5 17 14.5 17C14.5 17 14.5 17 14.5 17C14.5 17 14.5 17 14.5 17C14.5 17 14.5 17 14.5 17C14.5 17 14.5 17 14.5 17C14.5 17 14.5 17 14.5 17C14.5 17 14.5 17 14.5 17C14.5 17 14.5 17 14.5 17C14.5 17 14.5 17 14.5 17C14.5 17 14.5 17 14.5 17C14.5 17 14.5 17 14.5 17C14.5 17 14.5 17 14.5 17C14.5 17 14.5 17 14.5 17C14.5 17 14.5 17 14.5 17C14.5 17 14.5 17 14.5 17C14.5 17 14.5 17 14.5 17C14.5 17 14.5 17 14.5 17C14.5 17 14.5 17 14.5 17C14.5 17 14.5 17 14.5 17C14.5 17 14.5 17 14.5 17C14.5 17 14.5 17 14.5 17C14.5 17 14.5 17 14.5 17C14.5 17 14.5 17 14.5 17C14.5 17 14.5 17 14.5 17C14.5 17 14.5 17 14.5 17C14.5 17 14.5 17 14.5 17C14.5 17 14.5 17 14.5 17C14.5 17 14.5 17 14.5 17C14.5 17 14.5 17 14.5 17C14.5 17 14.5 17 14.5 17C14.5 17 14.5 17 14.5 17C14.5 17 14.5 17 14.5 17C14.5 17 14.5 17 14.5 17C14.5 17 14.5 17 14.5 17C14.5 17 14.5 17 14.5 17C14.5 17 14.5 17 14.5 17C14.5 17 14.5 17 14.5 17C14.5 17 14.5 17 14.5 17C14.5 17 14.5 17 14.5 17C14.5 17 14.5 17 14.5 17C14.5 17 14.5 17 14.5 17C14.5 17 14.5 17 14.5 17C14.5 17 14.5 17 14.5 17C14.5 17 14.5 17 14.5 17C14.5 17 14.5 17 14.5 17C14.5 17 14.5 17 14.5 17C14.5 17 14.5 17 14.5 17C14.5 17 14.5 17 14.5 17C14.5 17 14.5 17 14.5 17C14.5 17 14.5 17 14.5 17C14.5 17 14.5 17 14.5 17C14.5 17 14.5 17 14.5 17C14.5 17 14.5 17 14.5 17C14.5 17 14.5 17 14.5 17C14.5 17 14.5 17 14.5 17C14.5 17 14.5 17 14.5 17C14.5 17 14.5 17 14.5 17C14.5 17 14.5 17 14.5 17C14.5 17 14.5 17 14.5 17C14.5 17 14.5 17 14.5 17C14.5 17 14.5 17 14.5 17C14.5 17 14.5 17 14.5 17C14.5 17 14.5 17 14.5 17C14.5 17 14.5 17 14.5 17C14.5 17 14.5 17 14.5 17C14.5 17 14.5 17 14.5 17C14.5 17 14.5 17 14.5 17C14.5 17 14.5 17 14.5 17C14.5 17 14.5 17 14.5 17C14.5 17 14.5 17 14.5 17C14.5 17 14.5 17 14.5 17C14.5 17 14.5 17 14.5 17C14.5 17 14.5 17 14.5 17C14.5 17 14.5 17 14.5 17C14.5 17 14.5 17 14.5 17C14.5 17 14.5 17 14.5 17C14.5 17 14.5 17 14.5 17C14.5 17 14.5 17 14.5 17C14.5 17 14.5 17 14.5 17C14.5 17 14.5 17 14.5 17C14.5 17 14.5 17 14.5 17C14.5 17 14.5 17 14.5 17C14.5 17 14.5 17 14.5 17C14.5 17 14.5 17 14.5 17C14.5 17 14.5 17 14.5 17C14.5 17 14.5 17 14.5 17C14.5 17 14.5 17 14.5 17C14.5 17 14.5 17 14.5 17C14.5 17 14.5 17 14.5 17C14.5 17 14.5 17 14.5 17C14.5 17 14.5 17 14.5 17C14.5 17 14.5 17 14.5 17C14.5 17 14.5 17 14.5 17C14.5 17 14.5 17 14.5 17C14.5 17 14.5 17 14.5 17C14.5 17 14.5 17 14.5 17C14.5 17 14.5 17 14.5 17C14.5 17 14.5 17 14.5 17C14.5 17 14.5 17 14.5 17C14.5 17 14.5 17 14.5 17C14.5 17 14.5 17 14.5 17C14.5 17 14.5 17 14.5 17C14.5 17 14.5 17 14.5 17C14.5 17 14.5 17 14.5 17C14.5 17 14.5 17 14.5 17C14.5 17 14.5 17 14.5 17C14.5 17 14.5 17 14.5 17C14.5 17 14.5 17 14.5 17C14.5 17 14.5 17 14.5 17C14.5 17 14.5 17 14.5 17C14.5 17 14.5 17 14.5 17C14.5 17 14.5 17 14.5 17C14.5 17 14.5 17 14.5 17C14.5 17 14.5 17 14.5 17C14.5 17 14.5 17 14.5 17C14.5 17 14.5 17 14.5 17C14.5 17 14.5 17 14.5 17C14.5 17 14.5 17 14.5 17C14.5 17 14.5 17 14.5 17C14.5 17 14.5 17 14.5 17C14.5 17 14.5 17 14.5 17C14.5 17 14.5 17 14.5 17C14.5 17 14.5 17 14.5 17C14.5 17 14.5 17 14.5 17C14.5 17 14.5 17 14.5 17C14.5 17 14.5 17 14.5 17C14.5 17 14.5 17 14.5 17C14.5 17 14.5 17 14.5 17C14.5 17 14.5 17 14.5 17C14.5 17 14.5 17 14.5 17C14.5 17 14.5 17 14.5 17C14.5 17 14.5 17 14.5 17C14.5 17 14.5 17 14.5 17C14.5 17 14.5 17 14.5 17C14.5 17 14.5 17 14.5 17C14.5 17 14.5 17 14.5 17C14.5 17 14.5 17 14.5 17C14.5 17 14.5 17 14.5 17C14.5 17 14.5 17 14.5 17C14.5 17 14.5 17 14.5 17C14.5 17 14.5 17 14.5 17C14.5 17 14.5 17 14.5 17C14.5 17 14.5 17 14.5 17C14.5 17 14.5 17 14.5 17C14.5 17 14.5 17 14.5 17C14.5 17 14.5 17 14.5 17C14.5 17 14.5 17 14.5 17C14.5 17 14.5 17 14.5 17C14.5 17 14.5 17 14.5 17C14.5 17 14.5 17 14.5 17C14.5 17 14.5 17 14.5 17C14.5 17 14.5 17 14.5 17C14.5 17 14.5 17 14.5 17C14.5 17 14.5 17 14.5 17C14.5 17 14.5 17 14.5 17C14.5 17 14.5 17 14.5 17C14.5 17 14.5 17 14.5 17C14.5 17 14.5 17 14.5 17C14.5 17 14.5 17 14.5 17C14.5 17 14.5 17 14.5 17C14.5 17 14.5 17 14.5 17C14.5 17 14.5 17 14.5 17C14.5 17 14.5 17 14.5 17C14.5 17 14.5 17 14.5 17C14.5 17 14.5 17 14.5 17C14.5 17 14.5 17 14.5 17C14.5 17 14.5 17 14.5 17C14.5 17 14.5 17 14.5 17C14.5 17 14.5 17 14.5 17C14.5 17 14.5 17 14.5 17C14.5 17 14.5 17 14.5 17C14.5 17 14.5 17 14.5 17C14.5 17 14.5 17 14.5 17C14.5 17 14.5 17 14.5 17C14.5 17 14.5 17 14.5 17C14.5 17 14.5 17 14.5 17C14.5 17 14.5 17 14.5 17C14.5 17 14.5 17 14.5 17C14.5 17 14.5 17 14.5 17C14.5 17 14.5 17 14.5 17C14.5 17 14.5 17 14.5 17C14.5 17 14.5 17 14.5 17C14.5 17 14.5 17 14.5 17C14.5 17 14.5 17 14.5 17C14.5 17 14.5 17 14.5 17C14.5 17 14.5 17 14.5 17C14.5 17 14.5 17 14.5 17C14.5 17 14.5 17 14.5 17C14.5 17 14.5 17 14.5 17C14.5 17 14.5 17 14.5 17C14.5 17 14.5 17 14.5 17C14.5 17 14.5 17 14.5 17C14.5 17 14.5 17 14.5 17C14.5 17 14.5 17 14.5 17C14.5 17 14.5 17 14.5 17C14.5 17 14.5 17 14.5 17C14.5 17 14.5 17 14.5 17C14.5 17 14.5 17 14.5 17C14.5 17 14.5 17 14.5 17C14.5 17 14.5 17 14.5 17C14.5 17 14.5 17 14.5 17C14.5 17 14.5 17 14.5 17C14.5 17 14.5 17 14.5 17C14.5 17 14.5 17 14.5 17C14.5 17 14.5 17 14.5 17C14.5 17 14.5 17 14.5 17C14.5 17 14.5 17 14.5 17C14.5 17 14.5 17 14.5 17C14.5 17 14.5 17 14.5 17C14.5 17 14.5 17 14.5 17C14.5 17 14.5 17 14.5 17C14.5 17 14.5 17 14.5 17C14.5 17 14.5 17 14.5 17C14.5 17 14.5 17 14.5 17C14.5 17 14.5 17 14.5 17C14.5 17 14.5 17 14.5 17C14.5 17 14.5 17 14.5 17C14.5 17 14.5 17 14.5 17C14.5 17 14.5 17 14.5 17C14.5 17 14.5 17 14.5 17C14.5 17 14.5 17 14.5 17C14.5 17 14.5 17 14.5 17C14.5 17 14.5 17 14.5 17C14.5 17 14.5 17 14.5 17C14.5 17 14.5 17 14.5 17C14.5 17 14.5 17 14.5 17C14.5 17 14.5 17 14.5 17C14.5 17 14.5 17 14.5 17C14.5 17 14.5 17 14.5 17C14.5 17 14.5 17 14.5 17C14.5 17 14.5 17 14.5 17C14.5 17 14.5 17 14.5 17C14.5 17 14.5 17 14.5 17C14.5 17 14.5 17 14.5 17C14.5 17 14.5 17 14.5 17C14.5 17 14.5 17 14.5 17C14.5 17 14.5 17 14.5 17C14.5 17 14.5 17 14.5 17C14.5 17 14.5 17 14.5 17C14.5 17 14.5 17 14.5 17C14.5 17 14.5 17 14.5 17C14.5 17 14.5 17 14.5 17C14.5 17 14.5 17 14.5 17C14.5 17 14.5 17 14.5 17C14.5 17 14.5 17 14.5 17C14.5 17 14.5 17 14.5 17C14.5 17 14.5 17 14.5 17C14.5 17 14.5 17 14.5 17C14.5 17 14.5 17 14.5 17C14.5 17 14.5 17 14.5 17C14.5 17 14.5 17 14.5 17C14.5 17 14.5 17 14.5 17C14.5 17 14.5 17 14.5 17C14.5 17 14.5 17 14.5 17C14.5 17 14.5 17 14.5 17C14.5 17 14.5 17 14.5 17C14.5 17 14.5 17 14.5 17C14.5 17 14.5 17 14.5 17C14.5 17 14.5 17 14.5 17C14.5 17 14.5 17 14.5 17C14.5 17 14.5 17 14.5 17C14.5 17 14.5 17 14.5 17C14.5 17 14.5 17 14.5 17C14.5 17 14.5 17 14.5 17C14.5 17 14.5 17 14.5 17C14.5 17 14.5 17 14.5 17C14.5 17 14.5 17 14.5 17C14.5 17 14.5 17 14.5 17C14.5 17 14.5 17 14.5 17C14.5 17 14.5 17 14.5 17C14.5 17 14.5 17 14.5 17C14.5 17 14.5 17 14.5 17C14.5 17 14.5 17 14.5 17C14.5 17 14.5 17 14.5 17C14.5 17 14.5 17 14.5 17C14.5 17 14.5 17 14.5 17C14.5 17 14.5 17 14.5 17C14.5 17 14.5 17 14.5 17C14.5 17 14.5 17 14.5 17C14.5 17 14.5 17 14.5 17C14.5 17 14.5 17 14.5 17C14.5 17 14.5 17 14.5 17C14.5 17 14.5 17 14.5 17C14.5 17 14.5 17 14.5 17C14.5 17 14.5 17 14.5 17C14.5 17 14.5 17 14.5 17C14.5 17 14.5 17 14.5 17C14.5 17 14.5 17 14.5 17C14.5 17 14.5 17 14.5 17C14.5 17 14.5 17 14.5 17C14.5 17 14.5 17 14.5 17C14.5 17 14.5 17 14.5 17C14.5 17 14.5 17 14.5 17C14.5 17 14.5 17 14.5 17C14.5 17 14.5 17 14.5 17C14.5 17 14.5 17 14.5 17C14.5 17 14.5 17 14.5 17C14.5 17 14.5 17 14.5 17C14.5 17 14.5 17 14.5 17C14.5 17 14.5 17 14.5 17C14.5 17 14.5 17 14.5 17C14.5 17 14.5 17 14.5 17C14.5 17 14.5 17 14.5 17C14.5 17 14.5 17 14.5 17C14.5 17 14.5 17 14.5 17C14.5 17 14.5 17 14.5 17C14.5 17 14.5 17 14.5 17C14.5 17 14.5 17 14.5 17C14.5 17 14.5 17 14.5 17C14.5 17 14.5 17 14.5 17C14.5 17 14.5 17 14.5 17C14.5 17 14.5 17 14.5 17C14.5 17 14.5 17 14.5 17C14.5 17 14.5 17 14.5 17C14.5 17 14.5 17 14.5 17C14.5 17 14.5 17 14.5 17H17.5ZM17.5 24.7419V17H14.5V24.7419H17.5ZM25.2903 23.2419H16V26.2419H25.2903V23.2419ZM23.7903 17V24.7419H26.7903V17H23.7903Z" fill="white" fill-opacity="0.7"/>
</svg>
