<svg width="30" height="19" viewBox="0 0 30 19" fill="none" xmlns="http://www.w3.org/2000/svg">
<path fill-rule="evenodd" clip-rule="evenodd" d="M28.9749 2.82843C29.3654 2.43791 29.3654 1.80474 28.9749 1.41422L28.2678 0.707108C27.8772 0.316586 27.2441 0.316584 26.8536 0.707102L25.4394 2.12129L27.5607 4.24261L28.9749 2.82843ZM14.5607 17.2426L26.5607 5.24261L24.4394 3.12129L12.4394 15.1213L11.5563 16.7722C11.0898 17.6444 12.0375 18.5921 12.9098 18.1256L14.5607 17.2426ZM10.9344 6.99998C10.8758 6.99998 10.8251 6.98131 10.7824 6.94398C10.7451 6.90664 10.7264 6.85864 10.7264 6.79998V6.23198C10.7264 6.19464 10.7371 6.13864 10.7584 6.06398C10.7798 5.98398 10.8358 5.90931 10.9264 5.83998L11.7584 5.02398C12.1851 4.69864 12.5344 4.42398 12.8064 4.19998C13.0838 3.97064 13.2891 3.76798 13.4224 3.59198C13.5558 3.41598 13.6224 3.25064 13.6224 3.09598C13.6224 2.91464 13.5744 2.76531 13.4784 2.64798C13.3878 2.52531 13.2278 2.46398 12.9984 2.46398C12.8438 2.46398 12.7131 2.49864 12.6064 2.56798C12.5051 2.63198 12.4278 2.71731 12.3744 2.82398C12.3211 2.93064 12.2838 3.03998 12.2624 3.15198C12.2411 3.22131 12.2038 3.26931 12.1504 3.29598C12.1024 3.32264 12.0491 3.33598 11.9904 3.33598H10.9904C10.9424 3.33598 10.9024 3.31998 10.8704 3.28798C10.8384 3.25598 10.8224 3.21598 10.8224 3.16798C10.8278 2.91198 10.8811 2.67198 10.9824 2.44798C11.0891 2.22398 11.2358 2.02664 11.4224 1.85598C11.6144 1.67998 11.8411 1.54398 12.1024 1.44798C12.3691 1.35198 12.6678 1.30398 12.9984 1.30398C13.4518 1.30398 13.8358 1.37598 14.1504 1.51998C14.4704 1.66398 14.7131 1.86664 14.8784 2.12798C15.0438 2.38398 15.1264 2.68531 15.1264 3.03198C15.1264 3.29331 15.0678 3.53864 14.9504 3.76798C14.8384 3.99198 14.6758 4.20798 14.4624 4.41598C14.2544 4.61864 14.0064 4.82931 13.7184 5.04798L12.9824 5.79198H15.0384C15.0971 5.79198 15.1451 5.81064 15.1824 5.84798C15.2251 5.88531 15.2464 5.93331 15.2464 5.99198V6.79998C15.2464 6.85864 15.2251 6.90664 15.1824 6.94398C15.1451 6.98131 15.0971 6.99998 15.0384 6.99998H10.9344ZM3.08369 6.94398C3.12636 6.98132 3.17436 6.99998 3.22769 6.99998H4.26769C4.32103 6.99998 4.36636 6.98132 4.40369 6.94398C4.44636 6.90665 4.46769 6.85865 4.46769 6.79998V1.59998C4.46769 1.54132 4.44636 1.49332 4.40369 1.45598C4.36636 1.41865 4.32103 1.39998 4.26769 1.39998H3.26769C3.23036 1.39998 3.19569 1.40532 3.16369 1.41598C3.13703 1.42132 3.10769 1.43465 3.07569 1.45598L1.23569 2.87998C1.18236 2.91198 1.15036 2.95732 1.13969 3.01598C1.13436 3.06932 1.14769 3.11998 1.17969 3.16798L1.65169 3.78398C1.68903 3.83198 1.73169 3.86132 1.77969 3.87198C1.83303 3.88265 1.88369 3.86932 1.93169 3.83198L3.02769 2.99198V6.79998C3.02769 6.85865 3.04636 6.90665 3.08369 6.94398ZM3.24144 17.944C3.2841 17.9813 3.3321 18 3.38544 18H4.36944C4.4281 18 4.4761 17.9813 4.51344 17.944C4.5561 17.9067 4.57744 17.8587 4.57744 17.8V16.896H5.28944C5.34277 16.896 5.3881 16.8773 5.42544 16.84C5.4681 16.8027 5.48944 16.7547 5.48944 16.696V15.904C5.48944 15.8507 5.47077 15.8053 5.43344 15.768C5.3961 15.7253 5.34544 15.704 5.28144 15.704H4.57744V12.6C4.57744 12.5413 4.5561 12.4933 4.51344 12.456C4.4761 12.4187 4.4281 12.4 4.36944 12.4H3.20944C3.08144 12.4 2.98277 12.4453 2.91344 12.536L0.585437 15.688C0.564103 15.7253 0.54277 15.7653 0.521436 15.808C0.505436 15.8453 0.497437 15.888 0.497437 15.936V16.696C0.497437 16.7547 0.516103 16.8027 0.553437 16.84C0.596103 16.8773 0.644103 16.896 0.697437 16.896H3.18544V17.8C3.18544 17.8587 3.2041 17.9067 3.24144 17.944ZM3.21744 15.76H1.87344L3.21744 13.872V15.76Z" fill="white" fill-opacity="0.7"/>
</svg>
