<svg width="27" height="27" viewBox="0 0 27 27" fill="none" xmlns="http://www.w3.org/2000/svg">
<path d="M10.1043 2V0.5C9.27585 0.5 8.60428 1.17157 8.60428 2L10.1043 2ZM16.8954 2H18.3954C18.3954 1.17157 17.7238 0.5 16.8954 0.5V2ZM10.1043 4.92191L10.6671 6.31232C11.2336 6.08302 11.6043 5.53301 11.6043 4.92191H10.1043ZM7.92782 6.18063L7.17782 7.47967C7.70749 7.78547 8.36978 7.73907 8.85164 7.36239L7.92782 6.18063ZM5.39557 4.71864L6.14557 3.4196C5.42813 3.00538 4.51075 3.2512 4.09653 3.96864L5.39557 4.71864ZM2 10.5999L0.700962 9.84994C0.50205 10.1945 0.448147 10.6039 0.551111 10.9882C0.654076 11.3724 0.905474 11.7001 1.25 11.899L2 10.5999ZM4.53154 12.0615L6.01728 12.2679C6.10127 11.6631 5.81031 11.0678 5.28154 10.7625L4.53154 12.0615ZM4.53155 14.5757L5.28155 15.8747C5.81032 15.5694 6.10128 14.9741 6.01728 14.3693L4.53155 14.5757ZM2.00006 16.0372L1.25006 14.7382C0.90553 14.9371 0.654132 15.2647 0.551167 15.649C0.448203 16.0333 0.502106 16.4427 0.701018 16.7872L2.00006 16.0372ZM5.39563 21.9185L4.09659 22.6685C4.5108 23.386 5.42819 23.6318 6.14563 23.2176L5.39563 21.9185ZM7.92784 20.4565L8.85166 19.2748C8.3698 18.8981 7.70751 18.8517 7.17784 19.1575L7.92784 20.4565ZM10.1043 21.7152H11.6043C11.6043 21.1041 11.2336 20.5541 10.6671 20.3248L10.1043 21.7152ZM10.1043 24.6371H8.60428C8.60428 25.4656 9.27585 26.1371 10.1043 26.1371V24.6371ZM16.8954 24.6371V26.1371C17.7238 26.1371 18.3954 25.4656 18.3954 24.6371H16.8954ZM16.8954 21.7152L16.3326 20.3248C15.7661 20.5541 15.3954 21.1041 15.3954 21.7152H16.8954ZM19.072 20.4564L19.822 19.1574C19.2923 18.8516 18.63 18.898 18.1481 19.2747L19.072 20.4564ZM21.6043 21.9185L20.8543 23.2176C21.5718 23.6318 22.4892 23.386 22.9034 22.6685L21.6043 21.9185ZM24.9999 16.0372L26.299 16.7872C26.7132 16.0698 26.4674 15.1524 25.7499 14.7382L24.9999 16.0372ZM22.4682 14.5755L20.9824 14.3692C20.8984 14.9739 21.1894 15.5693 21.7182 15.8745L22.4682 14.5755ZM22.4682 12.0617L21.7182 10.7626C21.1894 11.0679 20.8985 11.6632 20.9824 12.268L22.4682 12.0617ZM25 10.5999L25.75 11.899C26.0945 11.7001 26.3459 11.3724 26.4489 10.9882C26.5518 10.6039 26.4979 10.1945 26.299 9.84994L25 10.5999ZM21.6044 4.71864L22.9034 3.96864C22.7045 3.62411 22.3769 3.37271 21.9926 3.26975C21.6084 3.16678 21.1989 3.22069 20.8544 3.4196L21.6044 4.71864ZM19.072 6.18072L18.1482 7.36247C18.63 7.73916 19.2923 7.78557 19.822 7.47976L19.072 6.18072ZM16.8954 4.92191H15.3954C15.3954 5.53301 15.7661 6.08302 16.3326 6.31232L16.8954 4.92191ZM10.1043 3.5H16.8954V0.5H10.1043V3.5ZM11.6043 4.92191V2H8.60428V4.92191H11.6043ZM8.85164 7.36239C9.40157 6.93249 10.0119 6.57755 10.6671 6.31232L9.54145 3.5315C8.62382 3.90295 7.77103 4.39926 7.004 4.99887L8.85164 7.36239ZM4.64557 6.01767L7.17782 7.47967L8.67782 4.88159L6.14557 3.4196L4.64557 6.01767ZM3.29904 11.3499L6.69461 5.46864L4.09653 3.96864L0.700962 9.84994L3.29904 11.3499ZM5.28154 10.7625L2.75 9.3009L1.25 11.899L3.78154 13.3606L5.28154 10.7625ZM5.94499 13.3186C5.94499 12.9613 5.96969 12.6105 6.01728 12.2679L3.0458 11.8552C2.97928 12.3342 2.94499 12.8228 2.94499 13.3186H5.94499ZM6.01728 14.3693C5.96969 14.0266 5.94499 13.6759 5.94499 13.3186H2.94499C2.94499 13.8144 2.97928 14.303 3.04581 14.782L6.01728 14.3693ZM2.75006 17.3362L5.28155 15.8747L3.78155 13.2766L1.25006 14.7382L2.75006 17.3362ZM6.69467 21.1685L3.29909 15.2872L0.701018 16.7872L4.09659 22.6685L6.69467 21.1685ZM7.17784 19.1575L4.64563 20.6195L6.14563 23.2176L8.67784 21.7556L7.17784 19.1575ZM10.6671 20.3248C10.0119 20.0596 9.40158 19.7047 8.85166 19.2748L7.00403 21.6383C7.77105 22.2379 8.62384 22.7342 9.54145 23.1056L10.6671 20.3248ZM11.6043 24.6371V21.7152H8.60428V24.6371H11.6043ZM16.8954 23.1371H10.1043V26.1371H16.8954V23.1371ZM15.3954 21.7152V24.6371H18.3954V21.7152H15.3954ZM18.1481 19.2747C17.5982 19.7046 16.9879 20.0596 16.3326 20.3248L17.4582 23.1056C18.3759 22.7342 19.2287 22.2378 19.9958 21.6382L18.1481 19.2747ZM22.3543 20.6195L19.822 19.1574L18.322 21.7555L20.8543 23.2176L22.3543 20.6195ZM23.7009 15.2872L20.3053 21.1685L22.9034 22.6685L26.299 16.7872L23.7009 15.2872ZM21.7182 15.8745L24.2499 17.3362L25.7499 14.7382L23.2182 13.2765L21.7182 15.8745ZM21.0547 13.3186C21.0547 13.6759 21.03 14.0265 20.9824 14.3692L23.9539 14.7818C24.0204 14.3029 24.0547 13.8143 24.0547 13.3186H21.0547ZM20.9824 12.268C21.03 12.6106 21.0547 12.9613 21.0547 13.3186H24.0547C24.0547 12.8229 24.0204 12.3343 23.9539 11.8554L20.9824 12.268ZM24.25 9.3009L21.7182 10.7626L23.2182 13.3607L25.75 11.899L24.25 9.3009ZM20.3054 5.46864L23.7009 11.3499L26.299 9.84994L22.9034 3.96864L20.3054 5.46864ZM19.822 7.47976L22.3544 6.01767L20.8544 3.4196L18.322 4.88168L19.822 7.47976ZM16.3326 6.31232C16.9879 6.57757 17.5982 6.93253 18.1482 7.36247L19.9958 4.99897C19.2288 4.39932 18.3759 3.90297 17.4582 3.5315L16.3326 6.31232ZM15.3954 2V4.92191H18.3954V2H15.3954Z" fill="white" fill-opacity="0.7"/>
<circle cx="13.5" cy="13.3186" r="2" fill="white" fill-opacity="0.7"/>
</svg>
