<svg width="27" height="21" viewBox="0 0 27 21" fill="none" xmlns="http://www.w3.org/2000/svg">
<path fill-rule="evenodd" clip-rule="evenodd" d="M8.11389 9.46445C8.56626 7.16337 10.0215 5.08218 12.2593 3.91243C16.1749 1.86566 21.0084 3.38065 23.0551 7.29625C24.9453 10.9123 23.7979 15.3112 20.5272 17.5751C20.0731 17.8894 19.8787 18.4888 20.1346 18.9783L20.5978 19.8645C20.8537 20.354 21.4614 20.5469 21.9259 20.2482C26.661 17.2033 28.3721 10.9919 25.7138 5.9065C22.8995 0.522547 16.2535 -1.56056 10.8696 1.25375C7.83383 2.84059 5.84902 5.64442 5.1979 8.75215L3.33662 5.1914C3.08078 4.70195 2.4766 4.51258 1.98715 4.76842L1.10092 5.23167C0.611469 5.48752 0.422096 6.0917 0.677942 6.58115L4.38394 13.671C4.63979 14.1604 5.24397 14.3498 5.73342 14.0939L7.50588 13.1674L7.50586 13.1674L12.8233 10.3879C13.3127 10.1321 13.5021 9.52787 13.2462 9.03842L12.783 8.1522C12.5271 7.66275 11.923 7.47337 11.4335 7.72922L8.11389 9.46445Z" fill="white" fill-opacity="0.7"/>
</svg>
