<svg width="20" height="20" viewBox="0 0 20 20" fill="none" xmlns="http://www.w3.org/2000/svg">
<path fill-rule="evenodd" clip-rule="evenodd" d="M9.99998 12L2.70709 19.2929C2.31656 19.6834 1.6834 19.6834 1.29288 19.2929L0.585769 18.5858C0.195245 18.1952 0.195244 17.5621 0.585768 17.1716L7.87866 9.87866L0.707089 2.70709C0.316565 2.31657 0.316565 1.6834 0.707089 1.29288L1.4142 0.585769C1.80472 0.195245 2.43788 0.195244 2.82841 0.585768L9.99998 7.75734L17.1716 0.585769C17.5621 0.195245 18.1952 0.195245 18.5858 0.585769L19.2929 1.29288C19.6834 1.6834 19.6834 2.31657 19.2929 2.70709L12.1213 9.87866L19.4142 17.1716C19.8047 17.5621 19.8047 18.1952 19.4142 18.5858L18.7071 19.2929C18.3166 19.6834 17.6834 19.6834 17.2929 19.2929L9.99998 12Z" fill="white" fill-opacity="0.7"/>
</svg>
